<svg width="20" height="19" viewBox="0 0 20 19" fill="none" xmlns="http://www.w3.org/2000/svg">
<path d="M6.29 17.9983C13.837 17.9983 17.965 11.7453 17.965 6.32327C17.965 6.14527 17.965 5.96827 17.953 5.79327C18.7562 5.21179 19.4493 4.49188 20 3.66727C19.2511 3.99927 18.4566 4.21703 17.643 4.31327C18.4996 3.80033 19.1408 2.99362 19.447 2.04327C18.6417 2.52115 17.7607 2.858 16.842 3.03927C16.2234 2.38103 15.405 1.9451 14.5136 1.79897C13.6222 1.65285 12.7075 1.80467 11.9111 2.23094C11.1147 2.65721 10.4811 3.33414 10.1083 4.15693C9.7355 4.97971 9.64437 5.90245 9.849 6.78227C8.21759 6.70051 6.6216 6.27659 5.16465 5.53804C3.70769 4.79948 2.42233 3.76279 1.392 2.49527C0.867318 3.39847 0.706589 4.46769 0.942536 5.48523C1.17848 6.50278 1.79337 7.39214 2.662 7.97227C2.00926 7.95337 1.37063 7.77777 0.8 7.46027V7.51227C0.800389 8.45956 1.1284 9.37757 1.7284 10.1106C2.3284 10.8437 3.16347 11.3466 4.092 11.5343C3.48781 11.699 2.85389 11.7229 2.239 11.6043C2.50116 12.4197 3.01168 13.1329 3.69913 13.6439C4.38658 14.1549 5.21657 14.4382 6.073 14.4543C5.22212 15.1228 4.24779 15.6171 3.20573 15.9088C2.16367 16.2005 1.07432 16.2839 0 16.1543C1.8766 17.3586 4.06019 17.9974 6.29 17.9943" fill="#64748B"/>
</svg>
