<svg width="20" height="21" viewBox="0 0 20 21" fill="none" xmlns="http://www.w3.org/2000/svg">
<g clip-path="url(#clip0_232_831)">
<path fill-rule="evenodd" clip-rule="evenodd" d="M10 0.746826C4.477 0.746826 0 5.23083 0 10.7638C0 15.1888 2.865 18.9438 6.839 20.2678C7.339 20.3598 7.521 20.0508 7.521 19.7848C7.521 19.5478 7.513 18.9168 7.508 18.0818C4.726 18.6868 4.139 16.7388 4.139 16.7388C3.685 15.5808 3.029 15.2728 3.029 15.2728C2.121 14.6528 3.098 14.6648 3.098 14.6648C4.101 14.7348 4.629 15.6968 4.629 15.6968C5.521 17.2268 6.97 16.7848 7.539 16.5288C7.631 15.8818 7.889 15.4408 8.175 15.1908C5.955 14.9378 3.62 14.0778 3.62 10.2398C3.62 9.14683 4.01 8.25183 4.649 7.55183C4.546 7.29883 4.203 6.27983 4.747 4.90183C4.747 4.90183 5.587 4.63183 7.497 5.92783C8.31277 5.70534 9.15444 5.59202 10 5.59083C10.85 5.59483 11.705 5.70583 12.504 5.92783C14.413 4.63183 15.251 4.90083 15.251 4.90083C15.797 6.27983 15.453 7.29883 15.351 7.55183C15.991 8.25183 16.379 9.14683 16.379 10.2398C16.379 14.0878 14.04 14.9348 11.813 15.1828C12.172 15.4918 12.491 16.1028 12.491 17.0378C12.491 18.3758 12.479 19.4568 12.479 19.7848C12.479 20.0528 12.659 20.3648 13.167 20.2668C15.1583 19.5989 16.8893 18.3221 18.1155 16.6168C19.3416 14.9116 20.0009 12.8641 20 10.7638C20 5.23083 15.522 0.746826 10 0.746826Z" fill="#64748B"/>
</g>
<defs>
<clipPath id="clip0_232_831">
<rect width="20" height="20" fill="white" transform="translate(0 0.746826)"/>
</clipPath>
</defs>
</svg>
