<svg width="91" height="24" viewBox="0 0 91 24" fill="none" xmlns="http://www.w3.org/2000/svg">
<g clip-path="url(#clip0_232_75)">
<path fill-rule="evenodd" clip-rule="evenodd" d="M21.6357 17.3823V7.56006H27.3532C29.9729 7.56006 30.9384 8.43688 30.9384 10.7599C30.9384 13.0828 29.9729 13.9422 27.3532 13.9422H23.5492V17.3837L21.6357 17.3823ZM23.5492 12.2517H27.1746C28.5496 12.2517 29.0169 11.8837 29.0169 10.7572C29.0169 9.63059 28.5496 9.24657 27.1746 9.24657H23.5492V12.2517ZM32.3013 17.3823V7.56006H37.906C40.4183 7.56006 41.3434 8.4248 41.3434 10.6833C41.3434 12.5914 40.6855 13.4857 38.9735 13.7166L41.8255 17.3823H39.4891L36.723 13.7744H34.1718V17.3823H32.3013ZM34.1718 12.104H37.7516C39.0366 12.104 39.4757 11.736 39.4757 10.6927C39.4757 9.61851 39.0191 9.24119 37.7516 9.24119H34.1718V12.104ZM42.7399 17.3823V7.56006H51.249V9.24791H44.6265V11.5642H50.2553V13.2359H44.6265V15.6999H51.3685V17.3823H42.7399ZM52.9449 17.3823V7.56006H61.5654V9.24791H54.8758V11.5642H60.5583V13.2359H54.8771V17.3823H52.9449ZM62.7027 17.3823V7.56006H71.2185V9.24791H64.5947V11.5642H70.2343V13.2359H64.5947V15.6999H71.338V17.3823H62.7027ZM81.547 7.56006H90.1649V9.27476H86.5797V17.3797H84.6757V9.27208H77.5765C74.1524 9.27208 74.1457 9.24254 74.1457 12.4705C74.1457 15.6985 74.1457 15.7012 77.5765 15.7012H80.6648V17.3837H77.5765C72.239 17.3837 72.239 17.0641 72.239 12.4705C72.239 7.87695 72.1611 7.56006 77.5765 7.56006H81.547Z" fill="#090422"/>
<path fill-rule="evenodd" clip-rule="evenodd" d="M14.4897 11.6894L7.34082 8.10693V15.3874L14.4897 11.6894Z" fill="#0052FF"/>
<path fill-rule="evenodd" clip-rule="evenodd" d="M8.25121 14.9147L7.34082 9.50342V15.3861L8.25121 14.9147Z" fill="#003EBF"/>
<path fill-rule="evenodd" clip-rule="evenodd" d="M13.5726 11.2262L7.34082 8.10693V8.90185L13.5726 11.2262Z" fill="#002980"/>
<path fill-rule="evenodd" clip-rule="evenodd" d="M0.629879 23.8857L7.20269 20.698C7.29265 20.6429 7.34368 20.6295 7.34636 20.4711C7.34636 20.4563 7.34636 8.10693 7.34636 8.10693C4.56685 9.49535 0.660762 11.445 0.322386 11.6236C0.214966 11.684 0.200195 11.7337 0.200195 11.8116V23.5661C0.200195 23.832 0.214966 24.0952 0.629879 23.8857Z" fill="url(#paint0_linear_232_75)"/>
<path fill-rule="evenodd" clip-rule="evenodd" d="M14.4901 4.68336V11.6859C14.4901 11.6859 1.15249 5.00831 0.69058 4.77467C0.383088 4.61354 0.383088 4.46181 0.69058 4.28859C0.973902 4.13015 6.38657 1.43254 7.21639 1.01628C7.25125 0.994025 7.29145 0.981533 7.33278 0.980116C7.37412 0.978699 7.41508 0.988408 7.45138 1.00823L14.3558 4.47121C14.3993 4.48691 14.4361 4.51678 14.4605 4.556C14.4849 4.59523 14.4953 4.64151 14.4901 4.68739V4.68336Z" fill="url(#paint1_linear_232_75)"/>
</g>
<defs>
<linearGradient id="paint0_linear_232_75" x1="1.11945" y1="11.1574" x2="12.2025" y2="15.3203" gradientUnits="userSpaceOnUse">
<stop stop-color="#22D7FF"/>
<stop offset="1" stop-color="#0052FF"/>
</linearGradient>
<linearGradient id="paint1_linear_232_75" x1="4.86388" y1="2.486" x2="10.9418" y2="11.5899" gradientUnits="userSpaceOnUse">
<stop stop-color="#22D7FF"/>
<stop offset="1" stop-color="#0052FF"/>
</linearGradient>
<clipPath id="clip0_232_75">
<rect width="89.969" height="22.98" fill="white" transform="translate(0.200195 0.97998)"/>
</clipPath>
</defs>
</svg>
