<svg width="20" height="21" viewBox="0 0 20 21" fill="none" xmlns="http://www.w3.org/2000/svg">
<g clip-path="url(#clip0_232_835)">
<path d="M0 2.17662C0 1.38607 0.661553 0.744385 1.47706 0.744385H18.5085C19.3243 0.744385 19.9855 1.38607 19.9855 2.17662V19.3065C19.9855 20.0973 19.3243 20.7386 18.5085 20.7386H1.47706C0.66163 20.7386 0 20.0974 0 19.3068V2.17639V2.17662Z" fill="#64748B"/>
<path d="M6.07319 17.4776V8.47616H3.08254V17.4776H6.0735H6.07319ZM4.57848 7.24737C5.62117 7.24737 6.27031 6.55617 6.27031 5.69237C6.25079 4.80887 5.62117 4.13696 4.59831 4.13696C3.57475 4.13696 2.90625 4.80887 2.90625 5.69228C2.90625 6.5561 3.55517 7.2473 4.55889 7.2473H4.57825L4.57848 7.24737ZM7.72854 17.4776H10.719V12.4513C10.719 12.1826 10.7385 11.9133 10.8175 11.7214C11.0336 11.1837 11.5256 10.627 12.352 10.627C13.4339 10.627 13.8669 11.4524 13.8669 12.6626V17.4776H16.8572V12.3165C16.8572 9.55171 15.3821 8.26512 13.4145 8.26512C11.8014 8.26512 11.0929 9.16714 10.6993 9.78149H10.7192V8.47647H7.7287C7.76774 9.32091 7.72848 17.4779 7.72848 17.4779L7.72854 17.4776Z" fill="white"/>
</g>
<defs>
<clipPath id="clip0_232_835">
<rect width="19.9855" height="20.03" fill="white" transform="translate(0 0.726807)"/>
</clipPath>
</defs>
</svg>
