<svg width="91" height="17" viewBox="0 0 91 17" fill="none" xmlns="http://www.w3.org/2000/svg">
<g clip-path="url(#clip0_232_90)">
<path d="M84.3627 13.7468L80.9901 5.99981H83.2484L85.5517 11.5558L88.2136 5.99981H90.4346L85.1851 16.6706H82.9269L84.3627 13.7468ZM76.1505 12.1428C76.3498 12.0974 76.5421 12.0258 76.7225 11.9297C76.8969 11.8369 77.0589 11.7226 77.2049 11.5894C77.3506 11.456 77.4765 11.3024 77.5787 11.1333C77.6859 10.9557 77.7689 10.7646 77.8255 10.565C77.8868 10.3472 77.917 10.1219 77.9152 9.89572C77.9173 9.66705 77.8871 9.43922 77.8255 9.21898C77.7689 9.01942 77.6859 8.82831 77.5787 8.65067C77.4759 8.4809 77.3501 8.32614 77.2049 8.19079C77.0607 8.0565 76.8983 7.94322 76.7225 7.85429C76.5409 7.76287 76.3488 7.69382 76.1505 7.64866C75.942 7.60087 75.7288 7.57703 75.5149 7.57762C75.3022 7.57689 75.0902 7.60072 74.883 7.64866C74.6871 7.69384 74.4975 7.7629 74.3184 7.85429C74.1433 7.94442 73.9811 8.05759 73.8361 8.19079C73.689 8.3254 73.5619 8.48024 73.4585 8.65067C73.3515 8.82793 73.2697 9.0192 73.2154 9.21898C73.1564 9.43965 73.1274 9.6673 73.1295 9.89572C73.1277 10.1217 73.1567 10.3468 73.2154 10.565C73.2697 10.7648 73.3515 10.956 73.4585 11.1333C73.5613 11.3031 73.6885 11.4568 73.8361 11.5894C73.9829 11.7215 74.1448 11.8357 74.3184 11.9297C74.4962 12.0257 74.6861 12.0974 74.883 12.1428C75.0902 12.1908 75.3022 12.2147 75.5149 12.2138C75.7288 12.2145 75.942 12.1907 76.1505 12.1428ZM73.8735 13.8776C73.5273 13.7895 73.1941 13.6563 72.8827 13.4813C72.276 13.1402 71.7753 12.6382 71.4357 12.0307C71.2607 11.7165 71.1275 11.381 71.0394 11.0324C70.8549 10.2833 70.8549 9.5007 71.0394 8.75165C71.1271 8.40412 71.2604 8.0697 71.4357 7.7571C71.7769 7.15173 72.2773 6.65132 72.8827 6.31015C73.1942 6.13521 73.5273 6.00197 73.8735 5.91383C74.2437 5.81992 74.6244 5.77344 75.0064 5.77549C75.2126 5.77502 75.4186 5.78751 75.6233 5.81288C75.8115 5.83618 75.9977 5.87367 76.1803 5.92504C76.3496 5.97309 76.5157 6.03178 76.6776 6.10077C76.8292 6.16524 76.9754 6.2415 77.1151 6.32885C77.2464 6.41106 77.3692 6.50626 77.4815 6.613C77.5866 6.71275 77.6841 6.82023 77.7731 6.93455V5.99981H79.9192V13.7917H77.7731V12.8569C77.6359 13.0291 77.479 13.1847 77.3058 13.3206C77.1142 13.471 76.9044 13.5966 76.6814 13.6944C76.4333 13.8034 76.1737 13.8837 75.9074 13.9337C75.6104 13.99 75.3086 14.0175 75.0063 14.016C74.6244 14.018 74.2437 13.9716 73.8735 13.8776ZM66.0822 7.97394C66.3896 7.97958 66.6964 7.94437 66.9945 7.86925C67.2269 7.81056 67.4437 7.70212 67.6301 7.55145C67.7984 7.41113 67.9272 7.22945 68.004 7.02426C68.0877 6.79178 68.1282 6.54597 68.1236 6.29892C68.1284 6.05308 68.0879 5.80845 68.004 5.57731C67.927 5.37435 67.7981 5.19514 67.6301 5.05761C67.4428 4.90917 67.2262 4.80213 66.9945 4.74354C66.6964 4.66851 66.3896 4.63331 66.0822 4.63885H63.9735V7.97394L66.0822 7.97394ZM61.7526 2.79932H66.2916C67.0045 2.79932 67.6227 2.88656 68.1461 3.06104C68.6695 3.23552 69.1007 3.47731 69.4397 3.78639C69.7769 4.09284 70.037 4.4746 70.1987 4.90058C70.3685 5.34964 70.4535 5.82632 70.4492 6.3064C70.4546 6.78535 70.3696 7.26102 70.1987 7.70848C70.0343 8.13091 69.7746 8.50966 69.4397 8.81519C69.1007 9.12684 68.6695 9.36987 68.1461 9.54427C67.6226 9.71888 67.0045 9.80612 66.2916 9.806H63.9735V13.7917H61.7526V2.79932ZM52.2159 5.99981H54.347V6.93453C54.4785 6.75311 54.6346 6.59079 54.8107 6.45221C54.997 6.30601 55.2004 6.18297 55.4164 6.0858C55.6543 5.97939 55.9041 5.90157 56.1604 5.85399C56.4451 5.80045 56.7343 5.77416 57.0241 5.77548C57.4753 5.76901 57.9238 5.84504 58.3477 5.99981C58.7253 6.13892 59.0674 6.3598 59.3497 6.64664C59.6333 6.94389 59.8477 7.30008 59.9778 7.68979C60.1279 8.1379 60.2012 8.60813 60.1947 9.08065V13.7917H58.0635V9.63401C58.0686 9.33007 58.0257 9.02723 57.9364 8.73668C57.8624 8.49679 57.7389 8.27514 57.5737 8.08611C57.4149 7.91052 57.2161 7.77584 56.9942 7.69353C56.7426 7.60253 56.4765 7.55818 56.209 7.56267C55.9403 7.55841 55.673 7.60275 55.4201 7.69353C55.1967 7.77514 54.9965 7.90988 54.8368 8.08611C54.6717 8.27513 54.5481 8.49679 54.4742 8.73668C54.3848 9.02723 54.3419 9.33007 54.347 9.63401V13.7917H52.2159V5.99981ZM46.9715 12.1204C47.175 12.0712 47.372 11.9984 47.5585 11.9035C47.736 11.8128 47.8987 11.6955 48.0409 11.5558C48.1817 11.4179 48.3036 11.262 48.4035 11.0922C48.5054 10.9172 48.581 10.7283 48.6279 10.5313C48.6787 10.3182 48.7038 10.0998 48.7026 9.88076C48.704 9.66292 48.6789 9.44572 48.6279 9.23393C48.5336 8.84358 48.3299 8.48821 48.0409 8.20948C47.8968 8.07096 47.7345 7.95272 47.5585 7.85802C47.3735 7.75876 47.1761 7.68458 46.9715 7.63742C46.7496 7.58646 46.5225 7.56137 46.2948 7.56265C46.0696 7.56163 45.845 7.58673 45.6255 7.63742C45.422 7.68413 45.2258 7.75835 45.0423 7.85802C44.8678 7.95337 44.7069 8.07157 44.5637 8.20948C44.4226 8.34527 44.3029 8.50156 44.2085 8.6731C44.112 8.84932 44.0367 9.03632 43.9842 9.23021C43.9277 9.44239 43.9 9.66121 43.9019 9.88078C43.9006 10.1003 43.9283 10.319 43.9842 10.5313C44.0353 10.7269 44.1107 10.9153 44.2085 11.0922C44.3041 11.2629 44.4237 11.4191 44.5637 11.5558C44.705 11.6949 44.8663 11.8121 45.0423 11.9035C45.2273 11.9988 45.4231 12.0717 45.6255 12.1204C45.8446 12.1736 46.0693 12.2 46.2948 12.1989C46.5227 12.2002 46.75 12.1739 46.9715 12.1204ZM45.0385 13.8739C44.654 13.7844 44.2813 13.6501 43.9281 13.4738C43.5958 13.3082 43.2876 13.0982 43.012 12.8494C42.7449 12.6078 42.5133 12.3296 42.3241 12.0232C42.1322 11.7112 41.985 11.3739 41.8866 11.0211C41.6822 10.2746 41.6822 9.48692 41.8866 8.74042C41.9846 8.38867 42.1319 8.05257 42.3241 7.74214C42.5147 7.43666 42.7461 7.15866 43.012 6.91586C43.2869 6.66518 43.5952 6.45379 43.9281 6.28772C44.2813 6.11149 44.654 5.97723 45.0385 5.88766C45.8704 5.69822 46.7342 5.69822 47.566 5.88766C47.9483 5.97642 48.3186 6.11074 48.669 6.28772C49.0004 6.45625 49.3084 6.66743 49.585 6.91586C49.855 7.15778 50.0903 7.43583 50.2842 7.74214C50.4785 8.05191 50.6271 8.38815 50.7254 8.74042C50.9298 9.48692 50.9298 10.2746 50.7254 11.0211C50.6267 11.3744 50.4782 11.7119 50.2842 12.0232C50.0916 12.3305 49.8562 12.6087 49.585 12.8494C49.3076 13.0959 48.9998 13.3057 48.669 13.4738C48.3198 13.6505 47.9508 13.7848 47.5697 13.8739C46.7366 14.0633 45.8716 14.0633 45.0385 13.8739ZM36.7224 12.1204C36.9258 12.0712 37.1228 11.9984 37.3094 11.9035C37.4869 11.8128 37.6495 11.6955 37.7917 11.5558C37.9325 11.4179 38.0544 11.262 38.1544 11.0922C38.2563 10.9173 38.3319 10.7283 38.3787 10.5313C38.4296 10.3182 38.4547 10.0998 38.4535 9.88076C38.4548 9.66292 38.4297 9.44572 38.3787 9.23393C38.2844 8.84358 38.0808 8.4882 37.7917 8.20948C37.6476 8.07096 37.4854 7.95272 37.3094 7.85802C37.1244 7.75874 36.927 7.68456 36.7224 7.63742C36.5004 7.58646 36.2733 7.56137 36.0456 7.56265C35.8204 7.56164 35.5958 7.58673 35.3764 7.63742C35.1728 7.68413 34.9766 7.75835 34.7931 7.85802C34.6187 7.9534 34.4577 8.07159 34.3145 8.20948C34.1735 8.34527 34.0537 8.50157 33.9593 8.6731C33.863 8.84935 33.7877 9.03633 33.735 9.23019C33.6785 9.44237 33.6508 9.66119 33.6527 9.88076C33.6515 10.1003 33.6791 10.319 33.735 10.5313C33.7863 10.7268 33.8616 10.9152 33.9593 11.0922C34.0549 11.2629 34.1745 11.419 34.3145 11.5558C34.4559 11.6949 34.6172 11.8121 34.7931 11.9035C34.9782 11.9988 35.174 12.0716 35.3764 12.1204C35.5955 12.1736 35.8202 12.1999 36.0456 12.1989C36.2736 12.2002 36.5008 12.1739 36.7224 12.1204ZM34.7894 13.8739C34.4049 13.7844 34.0322 13.6502 33.6789 13.4739C33.3467 13.3082 33.0385 13.0982 32.7629 12.8495C32.4958 12.6078 32.2642 12.3296 32.0749 12.0232C31.8831 11.7112 31.7358 11.374 31.6375 11.0212C31.4331 10.2747 31.4331 9.48696 31.6375 8.74046C31.7354 8.38871 31.8827 8.05261 32.0749 7.74217C32.2656 7.43672 32.497 7.15873 32.7629 6.9159C33.0378 6.66523 33.346 6.45385 33.6789 6.28776C34.0322 6.11153 34.4049 5.97726 34.7894 5.8877C35.6212 5.69826 36.485 5.69826 37.3169 5.8877C37.6992 5.97645 38.0695 6.11076 38.4198 6.28776C38.7513 6.45627 39.0592 6.66744 39.3359 6.9159C39.6059 7.15779 39.8412 7.43585 40.035 7.74217C40.2294 8.05193 40.378 8.38817 40.4762 8.74046C40.6806 9.48696 40.6806 10.2747 40.4762 11.0212C40.3776 11.3745 40.2291 11.7119 40.035 12.0232C39.8425 12.3305 39.6071 12.6088 39.3359 12.8495C39.0585 13.096 38.7506 13.3058 38.4198 13.4739C38.0707 13.6505 37.7016 13.7848 37.3206 13.8739C36.4875 14.0633 35.6225 14.0633 34.7894 13.8739ZM17.9688 2.79932H20.2121L24.0482 8.66189L27.8992 2.79932H30.1426V13.7917H27.9217V6.25405L24.7361 11.1146H23.3752L20.1897 6.25405V13.7917H17.9688V2.79932Z" fill="black"/>
<path d="M12.8468 4.76645C13.2905 4.76645 13.7242 4.63488 14.0931 4.38838C14.462 4.14188 14.7495 3.79152 14.9193 3.38161C15.0891 2.97169 15.1335 2.52063 15.047 2.08547C14.9604 1.6503 14.7468 1.25058 14.433 0.936843C14.1193 0.623108 13.7196 0.409451 13.2844 0.322891C12.8492 0.236332 12.3982 0.280757 11.9883 0.45055C11.5784 0.620342 11.228 0.907876 10.9815 1.27679C10.735 1.6457 10.6034 2.07943 10.6034 2.52312C10.6034 2.81772 10.6614 3.10945 10.7742 3.38163C10.8869 3.65381 11.0521 3.90112 11.2604 4.10944C11.4688 4.31775 11.7161 4.483 11.9883 4.59573C12.2604 4.70846 12.5522 4.76647 12.8468 4.76645ZM5.96814 14.8699C4.88664 14.8699 3.82943 14.5492 2.9302 13.9483C2.03097 13.3475 1.33011 12.4935 0.916239 11.4943C0.502369 10.4951 0.394082 9.39566 0.605072 8.33495C0.816062 7.27423 1.33685 6.2999 2.10159 5.53517C2.86632 4.77044 3.84065 4.24965 4.90136 4.03867C5.96208 3.82768 7.06154 3.93597 8.06071 4.34984C9.05988 4.76371 9.91388 5.46458 10.5147 6.36381C11.1156 7.26304 11.4363 8.32025 11.4363 9.40175C11.4363 10.1198 11.2949 10.8309 11.0201 11.4943C10.7453 12.1578 10.3425 12.7606 9.83473 13.2683C9.32696 13.7761 8.72415 14.1789 8.06072 14.4537C7.39729 14.7285 6.68623 14.8699 5.96814 14.8699Z" fill="#7D00FF"/>
</g>
<defs>
<clipPath id="clip0_232_90">
<rect width="89.935" height="16.39" fill="white" transform="translate(0.5 0.279785)"/>
</clipPath>
</defs>
</svg>
