<svg width="23" height="24" viewBox="0 0 23 24" fill="none" xmlns="http://www.w3.org/2000/svg">
<g clip-path="url(#clip0_232_1192)">
<path d="M21.5133 18.8333H20.1146V9.04202C20.1146 8.67105 19.9672 8.31527 19.7049 8.05296C19.4426 7.79064 19.0868 7.64327 18.7158 7.64327H13.1208V3.44702C13.121 3.19373 13.0524 2.94515 12.9223 2.7278C12.7922 2.51046 12.6056 2.33252 12.3823 2.21297C12.159 2.09342 11.9074 2.03674 11.6544 2.049C11.4014 2.06126 11.1565 2.14199 10.9458 2.28256L3.95201 6.9439C3.76016 7.0719 3.60293 7.24536 3.49433 7.44883C3.38573 7.6523 3.32913 7.87947 3.32957 8.11011V18.8333H1.93082C1.74533 18.8333 1.56745 18.907 1.43629 19.0381C1.30513 19.1693 1.23145 19.3472 1.23145 19.5326C1.23145 19.7181 1.30513 19.896 1.43629 20.0272C1.56745 20.1583 1.74533 20.232 1.93082 20.232H21.5133C21.6988 20.232 21.8767 20.1583 22.0079 20.0272C22.139 19.896 22.2127 19.7181 22.2127 19.5326C22.2127 19.3472 22.139 19.1693 22.0079 19.0381C21.8767 18.907 21.6988 18.8333 21.5133 18.8333ZM18.7158 9.04202V18.8333H13.1208V9.04202H18.7158ZM4.72832 8.11011L11.7221 3.44702V18.8333H4.72832V8.11011ZM10.3233 10.4408V11.8395C10.3233 12.025 10.2496 12.2029 10.1185 12.3341C9.98732 12.4652 9.80943 12.5389 9.62395 12.5389C9.43846 12.5389 9.26057 12.4652 9.12941 12.3341C8.99825 12.2029 8.92457 12.025 8.92457 11.8395V10.4408C8.92457 10.2553 8.99825 10.0774 9.12941 9.94624C9.26057 9.81508 9.43846 9.7414 9.62395 9.7414C9.80943 9.7414 9.98732 9.81508 10.1185 9.94624C10.2496 10.0774 10.3233 10.2553 10.3233 10.4408ZM7.52582 10.4408V11.8395C7.52582 12.025 7.45214 12.2029 7.32098 12.3341C7.18982 12.4652 7.01193 12.5389 6.82645 12.5389C6.64096 12.5389 6.46307 12.4652 6.33191 12.3341C6.20075 12.2029 6.12707 12.025 6.12707 11.8395V10.4408C6.12707 10.2553 6.20075 10.0774 6.33191 9.94624C6.46307 9.81508 6.64096 9.7414 6.82645 9.7414C7.01193 9.7414 7.18982 9.81508 7.32098 9.94624C7.45214 10.0774 7.52582 10.2553 7.52582 10.4408ZM7.52582 15.3364V16.7351C7.52582 16.9206 7.45214 17.0985 7.32098 17.2297C7.18982 17.3608 7.01193 17.4345 6.82645 17.4345C6.64096 17.4345 6.46307 17.3608 6.33191 17.2297C6.20075 17.0985 6.12707 16.9206 6.12707 16.7351V15.3364C6.12707 15.1509 6.20075 14.973 6.33191 14.8419C6.46307 14.7107 6.64096 14.637 6.82645 14.637C7.01193 14.637 7.18982 14.7107 7.32098 14.8419C7.45214 14.973 7.52582 15.1509 7.52582 15.3364ZM10.3233 15.3364V16.7351C10.3233 16.9206 10.2496 17.0985 10.1185 17.2297C9.98732 17.3608 9.80943 17.4345 9.62395 17.4345C9.43846 17.4345 9.26057 17.3608 9.12941 17.2297C8.99825 17.0985 8.92457 16.9206 8.92457 16.7351V15.3364C8.92457 15.1509 8.99825 14.973 9.12941 14.8419C9.26057 14.7107 9.43846 14.637 9.62395 14.637C9.80943 14.637 9.98732 14.7107 10.1185 14.8419C10.2496 14.973 10.3233 15.1509 10.3233 15.3364Z" fill="#1E293B"/>
</g>
<defs>
<clipPath id="clip0_232_1192">
<rect width="22.38" height="22.38" fill="white" transform="translate(0.532227 0.649902)"/>
</clipPath>
</defs>
</svg>
