<svg width="20" height="20" viewBox="0 0 20 20" fill="none" xmlns="http://www.w3.org/2000/svg">
<g clip-path="url(#clip0_233_1419)">
<path d="M18.418 16.254H17.2163V7.84198C17.2163 7.52327 17.0897 7.21761 16.8643 6.99224C16.6389 6.76688 16.3333 6.64027 16.0146 6.64027H11.2077V3.03513C11.2079 2.81752 11.1489 2.60396 11.0372 2.41723C10.9254 2.2305 10.765 2.07763 10.5732 1.97492C10.3813 1.87221 10.1652 1.82352 9.94785 1.83405C9.73049 1.84458 9.52007 1.91393 9.33905 2.03471L3.33049 6.03941C3.16566 6.14938 3.03058 6.29841 2.93728 6.47322C2.84398 6.64803 2.79536 6.84319 2.79573 7.04134V16.254H1.59402C1.43466 16.254 1.28183 16.3173 1.16915 16.4299C1.05647 16.5426 0.993164 16.6955 0.993164 16.8548C0.993164 17.0142 1.05647 17.167 1.16915 17.2797C1.28183 17.3924 1.43466 17.4557 1.59402 17.4557H18.418C18.5773 17.4557 18.7302 17.3924 18.8429 17.2797C18.9555 17.167 19.0188 17.0142 19.0188 16.8548C19.0188 16.6955 18.9555 16.5426 18.8429 16.4299C18.7302 16.3173 18.5773 16.254 18.418 16.254ZM16.0146 7.84198V16.254H11.2077V7.84198H16.0146ZM3.99744 7.04134L10.006 3.03513V16.254H3.99744V7.04134ZM8.80429 9.04369V10.2454C8.80429 10.4048 8.74098 10.5576 8.6283 10.6703C8.51562 10.783 8.36279 10.8463 8.20343 10.8463C8.04408 10.8463 7.89125 10.783 7.77856 10.6703C7.66588 10.5576 7.60258 10.4048 7.60258 10.2454V9.04369C7.60258 8.88434 7.66588 8.7315 7.77856 8.61882C7.89125 8.50614 8.04408 8.44284 8.20343 8.44284C8.36279 8.44284 8.51562 8.50614 8.6283 8.61882C8.74098 8.7315 8.80429 8.88434 8.80429 9.04369ZM6.40087 9.04369V10.2454C6.40087 10.4048 6.33756 10.5576 6.22488 10.6703C6.1122 10.783 5.95937 10.8463 5.80001 10.8463C5.64065 10.8463 5.48782 10.783 5.37514 10.6703C5.26246 10.5576 5.19915 10.4048 5.19915 10.2454V9.04369C5.19915 8.88434 5.26246 8.7315 5.37514 8.61882C5.48782 8.50614 5.64065 8.44284 5.80001 8.44284C5.95937 8.44284 6.1122 8.50614 6.22488 8.61882C6.33756 8.7315 6.40087 8.88434 6.40087 9.04369ZM6.40087 13.2497V14.4514C6.40087 14.6108 6.33756 14.7636 6.22488 14.8763C6.1122 14.9889 5.95937 15.0522 5.80001 15.0522C5.64065 15.0522 5.48782 14.9889 5.37514 14.8763C5.26246 14.7636 5.19915 14.6108 5.19915 14.4514V13.2497C5.19915 13.0903 5.26246 12.9375 5.37514 12.8248C5.48782 12.7121 5.64065 12.6488 5.80001 12.6488C5.95937 12.6488 6.1122 12.7121 6.22488 12.8248C6.33756 12.9375 6.40087 13.0903 6.40087 13.2497ZM8.80429 13.2497V14.4514C8.80429 14.6108 8.74098 14.7636 8.6283 14.8763C8.51562 14.9889 8.36279 15.0522 8.20343 15.0522C8.04408 15.0522 7.89125 14.9889 7.77856 14.8763C7.66588 14.7636 7.60258 14.6108 7.60258 14.4514V13.2497C7.60258 13.0903 7.66588 12.9375 7.77856 12.8248C7.89125 12.7121 8.04408 12.6488 8.20343 12.6488C8.36279 12.6488 8.51562 12.7121 8.6283 12.8248C8.74098 12.9375 8.80429 13.0903 8.80429 13.2497Z" fill="#1E293B"/>
</g>
<defs>
<clipPath id="clip0_233_1419">
<rect width="19.2274" height="19.2274" fill="white" transform="translate(0.392578 0.631653)"/>
</clipPath>
</defs>
</svg>
