<svg width="32" height="32" viewBox="0 0 32 32" fill="none" xmlns="http://www.w3.org/2000/svg">
<path d="M16.0001 2.99805C13.4289 2.99805 10.9155 3.76049 8.77763 5.18896C6.63978 6.61743 4.97353 8.64776 3.98958 11.0232C3.00563 13.3987 2.74819 16.0126 3.2498 18.5343C3.75141 21.0561 4.98955 23.3725 6.80764 25.1906C8.62574 27.0087 10.9421 28.2468 13.4639 28.7484C15.9857 29.25 18.5996 28.9926 20.975 28.0087C23.3505 27.0247 25.3808 25.3585 26.8093 23.2206C28.2377 21.0827 29.0002 18.5693 29.0002 15.9981C28.9936 12.5523 27.6218 9.24954 25.1853 6.81298C22.7487 4.37643 19.4459 3.00465 16.0001 2.99805ZM20.5501 16.8356L14.5501 20.8357C14.3846 20.9381 14.1947 20.9942 14.0001 20.9982C13.8352 20.998 13.6725 20.9595 13.5251 20.8857C13.3652 20.7994 13.2319 20.6712 13.1394 20.5148C13.0469 20.3584 12.9987 20.1798 13.0001 19.9982V11.9981C12.9987 11.8164 13.0469 11.6378 13.1394 11.4815C13.2319 11.3251 13.3652 11.1969 13.5251 11.1106C13.6856 11.0293 13.8645 10.9912 14.0442 11C14.2239 11.0088 14.3982 11.0641 14.5501 11.1606L20.5501 15.1606C20.6894 15.2515 20.8038 15.3757 20.883 15.5219C20.9622 15.6682 21.0037 15.8318 21.0037 15.9981C21.0037 16.1644 20.9622 16.3281 20.883 16.4744C20.8038 16.6206 20.6894 16.7448 20.5501 16.8356Z" fill="white"/>
</svg>
