<svg width="103" height="103" viewBox="0 0 103 103" fill="none" xmlns="http://www.w3.org/2000/svg">
<g filter="url(#filter0_d_232_1014)">
<circle cx="51.5" cy="47.5" r="31.5" fill="white"/>
</g>
<path d="M55 46C55 46.2652 54.8946 46.5196 54.7071 46.7071C54.5196 46.8946 54.2652 47 54 47H50C49.7348 47 49.4804 46.8946 49.2929 46.7071C49.1054 46.5196 49 46.2652 49 46C49 45.7348 49.1054 45.4804 49.2929 45.2929C49.4804 45.1054 49.7348 45 50 45H54C54.2652 45 54.5196 45.1054 54.7071 45.2929C54.8946 45.4804 55 45.7348 55 46ZM65 41V57C65 57.5304 64.7893 58.0391 64.4142 58.4142C64.0391 58.7893 63.5304 59 63 59H41C40.4696 59 39.9609 58.7893 39.5858 58.4142C39.2107 58.0391 39 57.5304 39 57V41C39 40.4696 39.2107 39.9609 39.5858 39.5858C39.9609 39.2107 40.4696 39 41 39H46V38C46 37.2044 46.3161 36.4413 46.8787 35.8787C47.4413 35.3161 48.2044 35 49 35H55C55.7956 35 56.5587 35.3161 57.1213 35.8787C57.6839 36.4413 58 37.2044 58 38V39H63C63.5304 39 64.0391 39.2107 64.4142 39.5858C64.7893 39.9609 65 40.4696 65 41ZM48 39H56V38C56 37.7348 55.8946 37.4804 55.7071 37.2929C55.5196 37.1054 55.2652 37 55 37H49C48.7348 37 48.4804 37.1054 48.2929 37.2929C48.1054 37.4804 48 37.7348 48 38V39ZM63 46.2013V41H41V46.2013C44.3753 48.0385 48.1571 49.0007 52 49C55.8429 49.0007 59.6247 48.0385 63 46.2013Z" fill="#64748B"/>
<defs>
<filter id="filter0_d_232_1014" x="0" y="0" width="103" height="103" filterUnits="userSpaceOnUse" color-interpolation-filters="sRGB">
<feFlood flood-opacity="0" result="BackgroundImageFix"/>
<feColorMatrix in="SourceAlpha" type="matrix" values="0 0 0 0 0 0 0 0 0 0 0 0 0 0 0 0 0 0 127 0" result="hardAlpha"/>
<feOffset dy="4"/>
<feGaussianBlur stdDeviation="10"/>
<feComposite in2="hardAlpha" operator="out"/>
<feColorMatrix type="matrix" values="0 0 0 0 0.0352941 0 0 0 0 0.0745098 0 0 0 0 0.0823529 0 0 0 0.08 0"/>
<feBlend mode="normal" in2="BackgroundImageFix" result="effect1_dropShadow_232_1014"/>
<feBlend mode="normal" in="SourceGraphic" in2="effect1_dropShadow_232_1014" result="shape"/>
</filter>
</defs>
</svg>
