<svg width="32" height="32" viewBox="0 0 32 32" fill="none" xmlns="http://www.w3.org/2000/svg">
<path d="M27.3565 31.6892C26.2417 31.6892 25.1935 31.2551 24.4063 30.4672C23.6172 29.6802 23.1836 28.6327 23.1836 27.5175C23.1836 26.4043 23.6172 25.3568 24.4042 24.5702C25.1922 23.7819 26.2403 23.3477 27.3549 23.3477C28.4689 23.3477 29.5162 23.7806 30.3032 24.5684C31.9296 26.1955 31.9296 28.8428 30.3032 30.4691C29.5162 31.2563 28.4694 31.6892 27.3565 31.6892Z" fill="#3B82F6"/>
<path d="M4.69607 9.45177C3.58158 9.45177 2.53337 9.01728 1.74512 8.22889C0.957634 7.4419 0.523438 6.39465 0.523438 5.28006C0.523438 4.16591 0.956294 3.11899 1.74327 2.33276C2.53234 1.54386 3.58075 1.10938 4.6953 1.10938C5.80877 1.10938 6.85591 1.54304 7.64256 2.33009C8.43132 3.11842 8.86526 4.16649 8.86526 5.28057C8.86526 6.39517 8.43132 7.44266 7.64307 8.23105C6.85591 9.01804 5.80928 9.45177 4.69607 9.45177Z" fill="#3B82F6"/>
<path d="M27.1682 9.32923C26.0529 9.32923 25.0058 8.895 24.2181 8.10718C22.5924 6.48087 22.5911 3.83494 24.2156 2.20972C25.0039 1.42133 26.0519 0.986328 27.1672 0.986328C28.2809 0.986328 29.3283 1.42056 30.116 2.20838C31.7416 3.83412 31.7416 6.48144 30.116 8.10985C29.3288 8.89551 28.2816 9.32923 27.1682 9.32923Z" fill="#3B82F6"/>
<path d="M4.80071 31.6905C3.68648 31.6905 2.63832 31.2564 1.8495 30.4685C1.06176 29.681 0.628652 28.634 0.628906 27.5193C0.628906 26.4056 1.06386 25.3581 1.85186 24.5703C2.01685 24.4042 2.20304 24.2525 2.4394 24.0925C2.51044 24.0431 2.57619 24.0036 2.64412 23.9623C2.79848 23.8737 2.95234 23.7928 3.09582 23.727C3.17405 23.692 3.25413 23.6561 3.33879 23.6238C3.48864 23.5681 3.65624 23.5183 3.84721 23.4729C3.8854 23.4628 3.91908 23.4538 3.95332 23.444C3.97477 23.4381 3.99521 23.431 4.01723 23.4256L4.94552 23.3625C5.06329 23.3678 5.18932 23.3824 5.32377 23.4002L5.37679 23.4071C5.40836 23.411 5.45108 23.4145 5.49379 23.4166L5.53116 23.4193L5.57361 23.4278H5.61047C5.67839 23.4304 5.74631 23.4317 5.81341 23.4317C7.41409 23.4317 8.99377 22.75 10.1481 21.5622C11.2976 20.3797 11.931 18.7889 11.8853 17.1969L11.8843 17.1496L11.8753 17.1003C11.8667 17.056 11.8641 17.0107 11.8612 16.9661C11.8573 16.9125 11.8527 16.8595 11.8461 16.8056L11.8357 16.7122C11.8267 16.6319 11.818 16.5536 11.8124 16.4737L11.8837 15.5419C11.8883 15.5185 11.8965 15.4973 11.9031 15.4748L11.9198 15.4172C11.9625 15.2409 12.0084 15.0636 12.075 14.8926C12.1092 14.7949 12.1421 14.723 12.1776 14.6496C12.2519 14.4867 12.3288 14.3387 12.4193 14.1867C12.4588 14.1209 12.497 14.0543 12.5421 13.9896C12.7108 13.744 12.8638 13.5562 13.0227 13.397C13.8104 12.6094 14.8575 12.1758 15.9736 12.1758C17.0873 12.1758 18.1361 12.6089 18.9243 13.3959C20.5486 15.0222 20.5475 17.669 18.9206 19.2961C18.7562 19.4608 18.5697 19.6123 18.3326 19.7744C18.2634 19.8216 18.1976 19.8609 18.1315 19.8998C17.9817 19.9892 17.8305 20.0688 17.6801 20.1383C17.5984 20.1749 17.517 20.2123 17.4382 20.2418C17.2786 20.3009 17.1094 20.3516 16.9316 20.3914L16.8316 20.4194C16.8091 20.4255 16.7868 20.4327 16.7645 20.4389L15.827 20.5051C15.7171 20.5006 15.6021 20.4858 15.48 20.4701L15.3968 20.4601C15.3689 20.4553 15.3249 20.4524 15.2811 20.4497L15.2479 20.4465L15.2002 20.4373H15.1626C15.0941 20.4348 15.027 20.4341 14.9591 20.4341C13.3587 20.4341 11.7795 21.1153 10.6258 22.3028C9.47545 23.4858 8.84234 25.0782 8.88772 26.6703L8.88899 26.7178L8.89778 26.7647C8.9065 26.8098 8.90841 26.8544 8.9121 26.8997C8.91605 26.9533 8.92082 27.0066 8.92719 27.0595C8.92878 27.091 8.9354 27.1486 8.94259 27.2048C8.94972 27.2687 8.958 27.3308 8.958 27.3947V27.4172L8.89084 28.3104C8.88638 28.3289 8.85666 28.4321 8.84819 28.4642C8.80306 28.6565 8.75188 28.8274 8.69516 28.9805C8.6641 29.0658 8.63253 29.1395 8.59567 29.2163C8.52323 29.3746 8.44449 29.5266 8.35511 29.681C8.31584 29.7441 8.26943 29.8184 8.2222 29.8897C8.06707 30.1144 7.91322 30.3038 7.74854 30.4693C6.96265 31.2564 5.91551 31.6905 4.80154 31.6905H4.80071Z" fill="#3B82F6"/>
<path d="M16.0657 31.6898C14.9504 31.6898 13.9025 31.2556 13.1142 30.467C12.3265 29.6797 11.8931 28.6327 11.8926 27.5181C11.8918 26.4048 12.3254 25.3578 13.1124 24.5721C13.2731 24.4104 13.4553 24.262 13.7049 24.0894C13.7667 24.0474 13.8333 24.0069 13.903 23.9666C14.0563 23.875 14.2035 23.7973 14.3566 23.727C14.4382 23.6901 14.5175 23.6533 14.5985 23.623C14.7533 23.566 14.922 23.5161 15.1011 23.4769C15.1011 23.4769 15.2477 23.4344 15.2666 23.4296L16.2098 23.3604C16.3212 23.3657 16.441 23.3816 16.5665 23.3978L16.6362 23.4071C16.6827 23.4116 16.7214 23.4153 16.7603 23.4159C16.776 23.4172 16.7914 23.4172 16.8062 23.4185L16.836 23.4228L16.8752 23.4265C16.9442 23.4284 17.0142 23.4302 17.0834 23.4302C18.6806 23.4296 20.2577 22.7493 21.4096 21.5628C22.5591 20.3811 23.1922 18.7882 23.1472 17.1961L23.1413 17.0017L23.1241 16.9802C23.1233 16.9735 23.1233 16.9658 23.1225 16.959C23.1201 16.9136 23.1174 16.8677 23.1129 16.8218L23.0976 16.6881C23.0888 16.6146 23.0792 16.5422 23.0766 16.4685L23.1413 15.5655C23.1463 15.5438 23.1787 15.4318 23.1864 15.3982C23.2395 15.1825 23.2859 15.0247 23.3392 14.8846C23.3686 14.8006 23.405 14.7236 23.4416 14.643C23.5084 14.4973 23.5864 14.3496 23.6821 14.1867L23.7001 14.157C23.7325 14.1021 23.7633 14.0477 23.8015 13.9949C23.9723 13.7461 24.124 13.5586 24.2842 13.3983C25.0727 12.61 26.1209 12.1758 27.2357 12.1758C28.3497 12.1758 29.3966 12.6093 30.184 13.3962C31.8094 15.0223 31.8094 17.6704 30.184 19.298C30.0265 19.455 29.8385 19.607 29.5933 19.7763C29.5461 19.8086 29.5011 19.8354 29.4557 19.8627L29.3827 19.9081C29.2432 19.9906 29.0913 20.0702 28.9435 20.1381C28.86 20.1755 28.7815 20.2115 28.6984 20.2426C28.5523 20.2975 28.3916 20.3442 28.1887 20.3927C28.1481 20.4023 28.1152 20.4126 28.0828 20.4224C28.06 20.4283 28.0388 20.4352 28.0168 20.4405L27.0898 20.5044C26.9543 20.4986 26.8074 20.4786 26.6652 20.4598C26.6169 20.454 26.5792 20.4522 26.5424 20.4503C26.5283 20.4495 26.514 20.4495 26.5 20.4476L26.4209 20.4391C26.352 20.4365 26.2835 20.4352 26.2148 20.4352C24.6165 20.4352 23.0392 21.1164 21.8857 22.3026C20.7373 23.4859 20.1044 25.0775 20.1511 26.6709L20.1524 26.7175L20.1615 26.7632C20.1702 26.8104 20.1723 26.8589 20.1758 26.9062C20.179 26.9552 20.1826 27.0032 20.1879 27.0502C20.1911 27.0897 20.197 27.1399 20.202 27.1892C20.2102 27.2597 20.219 27.3305 20.2208 27.4011L20.1524 28.3165C20.1471 28.3367 20.1115 28.46 20.1115 28.46C20.067 28.6539 20.0174 28.824 19.9585 28.9836C19.9307 29.0587 19.8978 29.1308 19.8641 29.2065L19.8527 29.233C19.7835 29.3823 19.7057 29.5295 19.6193 29.6736C19.5768 29.7449 19.5347 29.8144 19.4901 29.8805C19.3267 30.1176 19.1729 30.3062 19.0082 30.4726C18.2242 31.2569 17.1789 31.6898 16.0657 31.6898Z" fill="#3B82F6"/>
<path d="M4.80349 20.4281C3.689 20.4281 2.64136 19.9947 1.85388 19.2074C1.06588 18.4188 0.631433 17.371 0.63086 16.2564C0.630097 15.143 1.06296 14.0969 1.8507 13.3098C2.01219 13.1481 2.20023 12.9958 2.44218 12.8289C2.50501 12.7865 2.57637 12.743 2.64747 12.7003C2.79146 12.6151 2.93863 12.5369 3.09593 12.4647C3.17658 12.4278 3.25666 12.3915 3.34183 12.36C3.49511 12.3037 3.66437 12.2541 3.84044 12.2146L3.94656 12.1849C3.96616 12.1791 3.98501 12.1727 4.00436 12.1682L4.94831 12.1002C5.07084 12.1053 5.2035 12.1228 5.34221 12.1414L5.37136 12.1454C5.41993 12.1504 5.4573 12.1525 5.49549 12.1544C5.50905 12.1549 5.52254 12.1549 5.5361 12.157L5.57665 12.1639L5.61485 12.1655C5.68487 12.1674 5.75381 12.1687 5.82306 12.1687C7.41974 12.1687 8.99681 11.4883 10.1493 10.301C11.2983 9.11826 11.9308 7.52588 11.8849 5.93299L11.8836 5.88715L11.8746 5.84202C11.8648 5.79141 11.8635 5.74047 11.8603 5.68871C11.8579 5.64682 11.8553 5.60462 11.8507 5.56088L11.8364 5.43222C11.8266 5.35608 11.817 5.27835 11.8152 5.20087L11.8778 4.32476L11.8836 4.30458V4.28733C11.8886 4.26721 11.9231 4.15077 11.9231 4.15077C11.9759 3.92662 12.0231 3.76453 12.0761 3.62155C12.1059 3.5428 12.1427 3.46398 12.1802 3.38256C12.248 3.2327 12.3276 3.08067 12.4194 2.92629L12.4334 2.90242C12.4695 2.8422 12.5053 2.78229 12.5459 2.72207C12.7111 2.48225 12.8631 2.29502 13.022 2.13688C13.8103 1.3483 14.8582 0.914062 15.9735 0.914062C17.088 0.914062 18.1354 1.34773 18.9237 2.13529C20.5493 3.76185 20.548 6.40918 18.9218 8.03491C18.7608 8.19649 18.569 8.35246 18.3343 8.5113C18.2704 8.55644 18.2155 8.58877 18.1584 8.62245L18.1277 8.64054C17.9747 8.73151 17.8237 8.81108 17.6819 8.87634C17.5978 8.91504 17.519 8.95089 17.4389 8.9803C17.2824 9.03868 17.1164 9.08776 16.9291 9.13099C16.8896 9.14054 16.8541 9.1511 16.8188 9.16065C16.7973 9.16651 16.7755 9.17339 16.7532 9.17899L15.8286 9.24347C15.712 9.23762 15.5865 9.22221 15.4552 9.20522L15.3985 9.19808C15.3558 9.19305 15.3165 9.19096 15.2783 9.18854C15.2627 9.18771 15.2473 9.18771 15.2319 9.1851L15.2009 9.18134L15.16 9.17822C15.0911 9.17555 15.0224 9.17421 14.9531 9.17421C13.3562 9.17421 11.7788 9.85457 10.6261 11.0406C9.47664 12.2236 8.84352 13.8165 8.88891 15.4099L8.89018 15.4566L8.8984 15.5022C8.90826 15.5489 8.91011 15.5972 8.91329 15.6446C8.91647 15.6935 8.92042 15.7415 8.92551 15.7905C8.92946 15.8293 8.93531 15.8789 8.94111 15.9282C8.94881 15.998 8.95785 16.0664 8.95919 16.1357L8.8926 17.0447C8.88757 17.068 8.87987 17.0919 8.87268 17.1163L8.84938 17.1977C8.80291 17.4014 8.7539 17.5707 8.6982 17.7213C8.66847 17.7999 8.63028 17.8813 8.59234 17.9652C8.52366 18.1148 8.44619 18.2631 8.3558 18.4139C8.31251 18.4861 8.27247 18.554 8.22899 18.6182C8.05789 18.8662 7.91072 19.0484 7.74973 19.2081C6.96225 19.9952 5.91613 20.4281 4.80349 20.4281Z" fill="#3B82F6"/>
</svg>
