<svg width="26" height="26" viewBox="0 0 26 26" fill="none" xmlns="http://www.w3.org/2000/svg">
<path d="M22.327 25.3728C21.4338 25.3728 20.5941 25.025 19.9634 24.3938C19.3313 23.7633 18.9839 22.9241 18.9839 22.0307C18.9839 21.1388 19.3313 20.2996 19.9618 19.6695C20.5931 19.038 21.4328 18.6901 22.3257 18.6901C23.2181 18.6901 24.0572 19.0369 24.6877 19.668C25.9907 20.9716 25.9907 23.0924 24.6877 24.3953C24.0572 25.026 23.2185 25.3728 22.327 25.3728Z" fill="#1D75DD"/>
<path d="M4.17245 7.55746C3.2796 7.55746 2.43983 7.20937 1.80833 6.57776C1.17744 5.94727 0.82959 5.10828 0.82959 4.21533C0.82959 3.32274 1.17637 2.48401 1.80685 1.85413C2.43901 1.22211 3.27893 0.874023 4.17184 0.874023C5.06388 0.874023 5.90279 1.22145 6.53301 1.85199C7.16492 2.48355 7.51257 3.3232 7.51257 4.21574C7.51257 5.10869 7.16492 5.94788 6.53342 6.57949C5.90279 7.20998 5.06429 7.55746 4.17245 7.55746Z" fill="#1D75DD"/>
<path d="M22.1759 7.45923C21.2824 7.45923 20.4434 7.11135 19.8124 6.4802C18.51 5.17729 18.509 3.05753 19.8104 1.7555C20.442 1.12388 21.2815 0.775391 22.175 0.775391C23.0673 0.775391 23.9064 1.12327 24.5375 1.75443C25.8398 3.05687 25.8398 5.17775 24.5375 6.48234C23.9068 7.11176 23.0679 7.45923 22.1759 7.45923Z" fill="#1D75DD"/>
<path d="M4.25626 25.3738C3.36361 25.3738 2.52389 25.026 1.89193 24.3948C1.26084 23.7639 0.913859 22.9251 0.914063 22.0321C0.914063 21.1398 1.26253 20.3006 1.89382 19.6695C2.026 19.5364 2.17517 19.4149 2.36452 19.2867C2.42143 19.2472 2.47412 19.2155 2.52853 19.1824C2.6522 19.1114 2.77546 19.0466 2.89041 18.9939C2.95308 18.9658 3.01724 18.9371 3.08506 18.9112C3.20511 18.8666 3.33939 18.8267 3.49238 18.7903C3.52298 18.7822 3.54995 18.775 3.57739 18.7671C3.59457 18.7625 3.61095 18.7567 3.62859 18.7525L4.37228 18.7019C4.46663 18.7061 4.5676 18.7178 4.67531 18.7321L4.71779 18.7376C4.74308 18.7408 4.7773 18.7435 4.81152 18.7453L4.84145 18.7474L4.87547 18.7542H4.905C4.95941 18.7563 5.01383 18.7574 5.06758 18.7574C6.34995 18.7574 7.6155 18.2112 8.54028 17.2596C9.46119 16.3123 9.96861 15.0378 9.93205 13.7623L9.93123 13.7245L9.92399 13.685C9.91715 13.6495 9.91506 13.6132 9.91272 13.5775C9.90956 13.5345 9.90594 13.492 9.90058 13.4489L9.89232 13.3741C9.88508 13.3097 9.87809 13.247 9.8736 13.183L9.93077 12.4365C9.93439 12.4178 9.94097 12.4008 9.94627 12.3827L9.95969 12.3366C9.99391 12.1953 10.0306 12.0533 10.084 11.9163C10.1114 11.838 10.1378 11.7805 10.1662 11.7216C10.2257 11.5911 10.2873 11.4725 10.3598 11.3508C10.3915 11.2981 10.4221 11.2447 10.4582 11.1929C10.5933 10.9961 10.7159 10.8456 10.8432 10.7181C11.4743 10.0872 12.3132 9.73975 13.2073 9.73975C14.0996 9.73975 14.9398 10.0868 15.5713 10.7173C16.8726 12.0202 16.8717 14.1406 15.5683 15.4441C15.4366 15.5761 15.2872 15.6974 15.0972 15.8273C15.0418 15.8651 14.9891 15.8966 14.9361 15.9278C14.8161 15.9994 14.695 16.0632 14.5745 16.1189C14.509 16.1482 14.4438 16.1781 14.3807 16.2017C14.2528 16.2491 14.1172 16.2897 13.9748 16.3216L13.8947 16.3441C13.8767 16.349 13.8588 16.3547 13.841 16.3596L13.0898 16.4127C13.0019 16.4091 12.9097 16.3972 12.8119 16.3847L12.7452 16.3766C12.7229 16.3728 12.6876 16.3704 12.6525 16.3684L12.626 16.3658L12.5877 16.3584H12.5576C12.5027 16.3564 12.449 16.3558 12.3946 16.3558C11.1124 16.3558 9.84729 16.9015 8.92296 17.8529C8.00139 18.8007 7.49418 20.0764 7.53054 21.3519L7.53156 21.3899L7.53859 21.4275C7.54558 21.4637 7.54711 21.4994 7.55007 21.5357C7.55323 21.5786 7.55706 21.6213 7.56216 21.6637C7.56343 21.6889 7.56874 21.7351 7.5745 21.7801C7.58021 21.8313 7.58684 21.881 7.58684 21.9322V21.9503L7.53303 22.6659C7.52946 22.6807 7.50565 22.7634 7.49887 22.7891C7.46271 22.9432 7.42171 23.08 7.37627 23.2027C7.35138 23.2711 7.32609 23.3301 7.29656 23.3916C7.23853 23.5184 7.17544 23.6402 7.10384 23.7639C7.07238 23.8144 7.0352 23.874 6.99736 23.9311C6.87308 24.1111 6.74982 24.2628 6.61789 24.3954C5.98828 25.026 5.14938 25.3738 4.25693 25.3738H4.25626Z" fill="#1D75DD"/>
<path d="M13.2813 25.3732C12.3877 25.3732 11.5482 25.0254 10.9167 24.3936C10.2856 23.7628 9.9384 22.924 9.93799 22.0311C9.93733 21.1392 10.2848 20.3004 10.9152 19.671C11.044 19.5414 11.19 19.4225 11.3899 19.2842C11.4394 19.2506 11.4927 19.2181 11.5486 19.1858C11.6714 19.1125 11.7894 19.0502 11.912 18.9939C11.9774 18.9644 12.041 18.9348 12.1058 18.9106C12.2299 18.8649 12.365 18.825 12.5085 18.7935C12.5085 18.7935 12.626 18.7595 12.641 18.7557L13.3967 18.7002C13.4859 18.7045 13.5819 18.7172 13.6825 18.7302L13.7383 18.7376C13.7755 18.7412 13.8065 18.7442 13.8377 18.7447C13.8503 18.7457 13.8626 18.7457 13.8745 18.7467L13.8983 18.7502L13.9298 18.7531C13.985 18.7546 14.0411 18.7561 14.0966 18.7561C15.3762 18.7557 16.6396 18.2106 17.5625 17.26C18.4834 16.3133 18.9906 15.0372 18.9545 13.7617L18.9498 13.606L18.936 13.5887C18.9354 13.5834 18.9354 13.5773 18.9347 13.5718C18.9328 13.5354 18.9307 13.4986 18.9271 13.4618L18.9148 13.3548C18.9077 13.2959 18.9001 13.2379 18.8979 13.1788L18.9498 12.4554C18.9538 12.438 18.9798 12.3483 18.9859 12.3213C19.0284 12.1486 19.0656 12.0221 19.1084 11.9099C19.1319 11.8426 19.161 11.7809 19.1904 11.7163C19.2439 11.5996 19.3064 11.4813 19.3831 11.3508L19.3975 11.327C19.4235 11.283 19.4481 11.2394 19.4787 11.1971C19.6155 10.9978 19.7371 10.8476 19.8654 10.7192C20.4972 10.0876 21.3369 9.73975 22.23 9.73975C23.1224 9.73975 23.9611 10.087 24.592 10.7175C25.8941 12.0202 25.8941 14.1417 24.592 15.4456C24.4658 15.5714 24.3152 15.6932 24.1188 15.8288C24.081 15.8547 24.0449 15.8762 24.0085 15.8981L23.9501 15.9344C23.8383 16.0005 23.7166 16.0643 23.5982 16.1187C23.5313 16.1486 23.4684 16.1775 23.4019 16.2024C23.2848 16.2464 23.156 16.2838 22.9935 16.3227C22.9609 16.3303 22.9346 16.3386 22.9087 16.3465C22.8904 16.3512 22.8734 16.3567 22.8558 16.3609L22.1131 16.4121C22.0045 16.4075 21.8868 16.3915 21.7729 16.3764C21.7342 16.3718 21.7041 16.3703 21.6745 16.3688C21.6633 16.3682 21.6518 16.3682 21.6406 16.3667L21.5772 16.3598C21.522 16.3578 21.4672 16.3567 21.4121 16.3567C20.1317 16.3567 18.868 16.9024 17.9439 17.8527C17.0238 18.8008 16.5168 20.0758 16.5542 21.3523L16.5553 21.3897L16.5625 21.4263C16.5695 21.4641 16.5712 21.503 16.574 21.5409C16.5766 21.5801 16.5795 21.6186 16.5837 21.6562C16.5863 21.6879 16.591 21.7281 16.595 21.7676C16.6016 21.8241 16.6086 21.8808 16.6101 21.9374L16.5553 22.6708C16.551 22.6869 16.5225 22.7857 16.5225 22.7857C16.4868 22.9411 16.4471 23.0773 16.3999 23.2052C16.3777 23.2653 16.3513 23.3231 16.3243 23.3837L16.3152 23.405C16.2597 23.5246 16.1974 23.6426 16.1282 23.758C16.0942 23.8151 16.0604 23.8708 16.0247 23.9237C15.8938 24.1137 15.7706 24.2648 15.6386 24.3981C15.0105 25.0264 14.1731 25.3732 13.2813 25.3732Z" fill="#1D75DD"/>
<path d="M4.25839 16.351C3.36553 16.351 2.52622 16.0038 1.89534 15.373C1.26404 14.7413 0.915987 13.9018 0.915528 13.0089C0.914916 12.1169 1.2617 11.2788 1.89279 10.6483C2.02217 10.5187 2.17281 10.3967 2.36665 10.263C2.41699 10.229 2.47415 10.1942 2.53112 10.1599C2.64647 10.0917 2.76438 10.0291 2.8904 9.97123C2.95501 9.9417 3.01916 9.91257 3.0874 9.88733C3.2102 9.84224 3.3458 9.80251 3.48686 9.77084L3.57187 9.74707C3.58758 9.74238 3.60267 9.73728 3.61818 9.73366L4.37441 9.67924C4.47258 9.68332 4.57886 9.69735 4.68998 9.71219L4.71334 9.7154C4.75225 9.71943 4.78218 9.72111 4.81278 9.72264C4.82365 9.72305 4.83446 9.72305 4.84532 9.72473L4.87781 9.73024L4.9084 9.73152C4.9645 9.73305 5.01973 9.73407 5.07521 9.73407C6.35438 9.73407 7.61783 9.18901 8.54113 8.23782C9.46163 7.29025 9.96839 6.01452 9.93162 4.7384L9.93055 4.70168L9.92336 4.66552C9.91551 4.62497 9.91444 4.58416 9.91189 4.5427C9.90995 4.50914 9.90786 4.47533 9.90424 4.44029L9.89276 4.33721C9.88491 4.27622 9.87721 4.21394 9.87573 4.15187L9.92591 3.44998L9.93055 3.43381V3.41999C9.93458 3.40387 9.96222 3.31059 9.96222 3.31059C10.0045 3.13101 10.0423 3.00116 10.0848 2.88661C10.1086 2.82352 10.1382 2.76038 10.1681 2.69514C10.2225 2.57508 10.2863 2.45329 10.3598 2.32961L10.3711 2.31048C10.4 2.26224 10.4286 2.21424 10.4611 2.16599C10.5935 1.97387 10.7153 1.82387 10.8426 1.69718C11.4741 1.06542 12.3136 0.717529 13.2071 0.717529C14.1 0.717529 14.9391 1.06496 15.5706 1.6959C16.873 2.99901 16.8719 5.11989 15.5692 6.42234C15.4402 6.55178 15.2865 6.67674 15.0985 6.80399C15.0473 6.84015 15.0033 6.86606 14.9576 6.89304L14.933 6.90752C14.8104 6.98041 14.6895 7.04416 14.5758 7.09644C14.5084 7.12744 14.4453 7.15616 14.3811 7.17972C14.2558 7.22649 14.1228 7.26581 13.9727 7.30044C13.9411 7.30809 13.9126 7.31656 13.8843 7.32421C13.8671 7.3289 13.8497 7.33441 13.8318 7.3389L13.0911 7.39056C12.9976 7.38587 12.8971 7.37353 12.792 7.35991L12.7465 7.3542C12.7122 7.35017 12.6808 7.34849 12.6502 7.34655C12.6377 7.34589 12.6253 7.34589 12.613 7.34379L12.5882 7.34079L12.5554 7.33828C12.5002 7.33614 12.4452 7.33507 12.3897 7.33507C11.1103 7.33507 9.84661 7.88013 8.92315 8.83031C8.00225 9.77808 7.49503 11.0542 7.53139 12.3307L7.53241 12.3681L7.53899 12.4047C7.54689 12.4421 7.54837 12.4808 7.55092 12.5188C7.55347 12.5579 7.55663 12.5964 7.56071 12.6357C7.56387 12.6668 7.56857 12.7065 7.57321 12.746C7.57938 12.8019 7.58662 12.8567 7.58769 12.9122L7.53435 13.6404C7.53032 13.6592 7.52415 13.6783 7.51839 13.6978L7.49972 13.763C7.46249 13.9263 7.42323 14.0619 7.3786 14.1825C7.35479 14.2455 7.32419 14.3107 7.2938 14.3779C7.23877 14.4977 7.17671 14.6165 7.10429 14.7374C7.06961 14.7952 7.03754 14.8496 7.0027 14.9011C6.86562 15.0998 6.74772 15.2457 6.61875 15.3736C5.98786 16.0042 5.14977 16.351 4.25839 16.351Z" fill="#1D75DD"/>
</svg>
