<svg width="63" height="63" viewBox="0 0 63 63" fill="none" xmlns="http://www.w3.org/2000/svg">
<rect width="63" height="63" rx="31.5" fill="#3B82F6"/>
<path d="M42.833 46.7752C41.7182 46.7752 40.6701 46.341 39.8829 45.5531C39.0938 44.7661 38.6602 43.7186 38.6602 42.6035C38.6602 41.4902 39.0938 40.4427 39.8808 39.6562C40.6688 38.8678 41.7169 38.4336 42.8315 38.4336C43.9454 38.4336 44.9928 38.8665 45.7797 39.6543C47.4062 41.2814 47.4062 43.9287 45.7797 45.555C44.9928 46.3423 43.9459 46.7752 42.833 46.7752Z" fill="white"/>
<path d="M20.1726 24.5377C19.0581 24.5377 18.0099 24.1032 17.2217 23.3148C16.4342 22.5278 16 21.4806 16 20.366C16 19.2518 16.4329 18.2049 17.2198 17.4187C18.0089 16.6298 19.0573 16.1953 20.1719 16.1953C21.2853 16.1953 22.3325 16.629 23.1191 17.416C23.9079 18.2044 24.3418 19.2524 24.3418 20.3665C24.3418 21.4811 23.9079 22.5286 23.1196 23.317C22.3325 24.104 21.2858 24.5377 20.1726 24.5377Z" fill="white"/>
<path d="M42.6448 24.4152C41.5295 24.4152 40.4824 23.9809 39.6946 23.1931C38.069 21.5668 38.0677 18.9209 39.6922 17.2957C40.4805 16.5073 41.5284 16.0723 42.6437 16.0723C43.7574 16.0723 44.8048 16.5065 45.5926 17.2943C47.2182 18.9201 47.2182 21.5674 45.5926 23.1958C44.8053 23.9814 43.7582 24.4152 42.6448 24.4152Z" fill="white"/>
<path d="M20.2773 46.7765C19.163 46.7765 18.1149 46.3423 17.3261 45.5544C16.5383 44.7669 16.1052 43.7199 16.1055 42.6053C16.1055 41.4915 16.5404 40.444 17.3284 39.6562C17.4934 39.4901 17.6796 39.3384 17.916 39.1784C17.987 39.1291 18.0528 39.0895 18.1207 39.0482C18.275 38.9596 18.4289 38.8787 18.5724 38.8129C18.6506 38.7779 18.7307 38.7421 18.8154 38.7097C18.9652 38.654 19.1328 38.6042 19.3238 38.5588C19.362 38.5487 19.3956 38.5397 19.4299 38.5299C19.4513 38.524 19.4718 38.5169 19.4938 38.5116L20.4221 38.4485C20.5398 38.4538 20.6659 38.4683 20.8003 38.4861L20.8534 38.493C20.8849 38.497 20.9276 38.5004 20.9704 38.5026L21.0077 38.5052L21.0502 38.5137H21.087C21.155 38.5163 21.2229 38.5177 21.29 38.5177C22.8907 38.5177 24.4703 37.836 25.6247 36.6482C26.7742 35.4657 27.4075 33.8749 27.3619 32.2828L27.3609 32.2356L27.3518 32.1862C27.3433 32.1419 27.3407 32.0966 27.3378 32.052C27.3338 31.9984 27.3293 31.9454 27.3226 31.8915L27.3123 31.7981C27.3033 31.7178 27.2945 31.6395 27.2889 31.5597L27.3603 30.6278C27.3648 30.6045 27.373 30.5833 27.3797 30.5607L27.3964 30.5031C27.4391 30.3268 27.4849 30.1496 27.5515 29.9785C27.5858 29.8808 27.6187 29.809 27.6542 29.7355C27.7285 29.5727 27.8054 29.4246 27.8958 29.2726C27.9354 29.2069 27.9736 29.1403 28.0186 29.0756C28.1873 28.8299 28.3403 28.6421 28.4992 28.4829C29.287 27.6954 30.3341 27.2617 31.4502 27.2617C32.5639 27.2617 33.6126 27.6949 34.4009 28.4819C36.0252 30.1082 36.0241 32.7549 34.3972 34.3821C34.2328 34.5468 34.0462 34.6982 33.8092 34.8603C33.7399 34.9075 33.6742 34.9468 33.6081 34.9858C33.4583 35.0751 33.3071 35.1547 33.1567 35.2242C33.075 35.2608 32.9936 35.2982 32.9148 35.3277C32.7551 35.3868 32.5859 35.4375 32.4082 35.4773L32.3082 35.5054C32.2857 35.5115 32.2634 35.5187 32.2411 35.5248L31.3035 35.5911C31.1937 35.5865 31.0786 35.5717 30.9566 35.5561L30.8733 35.546C30.8454 35.5412 30.8015 35.5383 30.7577 35.5357L30.7245 35.5324L30.6768 35.5232H30.6391C30.5706 35.5208 30.5036 35.52 30.4357 35.52C28.8353 35.52 27.2561 36.2012 26.1023 37.3888C24.952 38.5718 24.3189 40.1642 24.3643 41.7562L24.3656 41.8037L24.3743 41.8506C24.3831 41.8958 24.385 41.9403 24.3887 41.9857C24.3926 42.0393 24.3974 42.0926 24.4038 42.1454C24.4053 42.1769 24.412 42.2345 24.4192 42.2907C24.4263 42.3546 24.4346 42.4167 24.4346 42.4806V42.5032L24.3674 43.3964C24.3629 43.4149 24.3332 43.5181 24.3248 43.5502C24.2796 43.7425 24.2284 43.9133 24.1717 44.0664C24.1407 44.1518 24.1091 44.2255 24.0722 44.3022C23.9998 44.4605 23.921 44.6125 23.8317 44.7669C23.7924 44.83 23.746 44.9043 23.6988 44.9757C23.5436 45.2003 23.3898 45.3897 23.2251 45.5553C22.4392 46.3423 21.3921 46.7765 20.2781 46.7765H20.2773Z" fill="white"/>
<path d="M31.5423 46.7757C30.427 46.7757 29.3791 46.3415 28.5908 45.5529C27.803 44.7656 27.3697 43.7186 27.3691 42.604C27.3683 41.4908 27.802 40.4438 28.5889 39.6581C28.7496 39.4963 28.9319 39.348 29.1815 39.1753C29.2432 39.1334 29.3098 39.0928 29.3796 39.0525C29.5329 38.961 29.6801 38.8832 29.8331 38.8129C29.9148 38.7761 29.9941 38.7392 30.075 38.709C30.2299 38.6519 30.3986 38.6021 30.5776 38.5628C30.5776 38.5628 30.7243 38.5203 30.7431 38.5156L31.6863 38.4464C31.7977 38.4517 31.9176 38.4676 32.0431 38.4837L32.1128 38.493C32.1592 38.4976 32.1979 38.5012 32.2369 38.5018C32.2526 38.5032 32.268 38.5032 32.2828 38.5044L32.3125 38.5087L32.3518 38.5124C32.4207 38.5143 32.4907 38.5161 32.5599 38.5161C34.1572 38.5156 35.7343 37.8352 36.8862 36.6487C38.0357 35.467 38.6688 33.8741 38.6237 32.282L38.6179 32.0876L38.6006 32.0661C38.5998 32.0595 38.5999 32.0518 38.599 32.0449C38.5967 31.9995 38.594 31.9536 38.5895 31.9077L38.5741 31.7741C38.5654 31.7006 38.5558 31.6282 38.5531 31.5544L38.6179 30.6515C38.6229 30.6298 38.6553 30.5178 38.6629 30.4841C38.716 30.2685 38.7624 30.1106 38.8158 29.9705C38.8452 29.8865 38.8815 29.8095 38.9181 29.7289C38.985 29.5833 39.063 29.4355 39.1587 29.2727L39.1767 29.2429C39.2091 29.1881 39.2399 29.1336 39.278 29.0809C39.4488 28.8321 39.6006 28.6445 39.7607 28.4843C40.5493 27.696 41.5975 27.2617 42.7123 27.2617C43.8262 27.2617 44.8731 27.6952 45.6606 28.4822C47.2859 30.1082 47.2859 32.7563 45.6606 34.3839C45.5031 34.541 45.315 34.6929 45.0699 34.8622C45.0227 34.8945 44.9776 34.9213 44.9323 34.9487L44.8593 34.994C44.7198 35.0765 44.5678 35.1561 44.4201 35.224C44.3366 35.2614 44.258 35.2975 44.175 35.3285C44.0289 35.3834 43.8681 35.4301 43.6653 35.4786C43.6246 35.4882 43.5918 35.4986 43.5594 35.5084C43.5366 35.5142 43.5154 35.5211 43.4934 35.5264L42.5664 35.5903C42.4308 35.5845 42.2839 35.5646 42.1417 35.5457C42.0935 35.5399 42.0558 35.5381 42.0189 35.5362C42.0049 35.5354 41.9906 35.5354 41.9765 35.5336L41.8975 35.5251C41.8285 35.5224 41.7601 35.5211 41.6914 35.5211C40.0931 35.5211 38.5158 36.2023 37.3623 37.3885C36.2138 38.5719 35.581 40.1634 35.6276 41.7568L35.629 41.8035L35.638 41.8491C35.6467 41.8963 35.6489 41.9449 35.6523 41.9921C35.6555 42.0411 35.6592 42.0892 35.6645 42.1361C35.6677 42.1756 35.6735 42.2258 35.6786 42.2751C35.6868 42.3457 35.6956 42.4165 35.6974 42.4871L35.629 43.4025C35.6237 43.4226 35.5881 43.546 35.5881 43.546C35.5436 43.7399 35.494 43.9099 35.4351 44.0696C35.4073 44.1446 35.3744 44.2168 35.3407 44.2924L35.3293 44.3189C35.26 44.4682 35.1823 44.6155 35.0959 44.7595C35.0534 44.8308 35.0113 44.9004 34.9667 44.9664C34.8033 45.2035 34.6495 45.3922 34.4848 45.5585C33.7007 46.3428 32.6554 46.7757 31.5423 46.7757Z" fill="white"/>
<path d="M20.2801 35.514C19.1656 35.514 18.1179 35.0806 17.3304 34.2933C16.5424 33.5047 16.108 32.4569 16.1074 31.3423C16.1067 30.229 16.5395 29.1828 17.3273 28.3958C17.4888 28.234 17.6768 28.0817 17.9187 27.9149C17.9816 27.8725 18.0529 27.8289 18.124 27.7862C18.268 27.7011 18.4152 27.6228 18.5725 27.5506C18.6531 27.5138 18.7332 27.4774 18.8184 27.4459C18.9717 27.3896 19.1409 27.3401 19.317 27.3005L19.4231 27.2709C19.4427 27.265 19.4616 27.2586 19.4809 27.2541L20.4249 27.1862C20.5474 27.1913 20.6801 27.2088 20.8188 27.2273L20.8479 27.2313C20.8965 27.2363 20.9339 27.2384 20.9721 27.2404C20.9856 27.2409 20.9991 27.2409 21.0127 27.243L21.0532 27.2498L21.0914 27.2514C21.1614 27.2533 21.2304 27.2546 21.2996 27.2546C22.8963 27.2546 24.4734 26.5743 25.6259 25.387C26.7748 24.2042 27.4074 22.6118 27.3615 21.0189L27.3602 20.9731L27.3512 20.928C27.3414 20.8773 27.34 20.8264 27.3369 20.7747C27.3344 20.7328 27.3318 20.6906 27.3273 20.6468L27.313 20.5182C27.3032 20.442 27.2936 20.3643 27.2917 20.2868L27.3544 19.4107L27.3602 19.3905V19.3733C27.3652 19.3531 27.3997 19.2367 27.3997 19.2367C27.4525 19.0126 27.4997 18.8505 27.5527 18.7075C27.5824 18.6287 27.6193 18.5499 27.6567 18.4685C27.7246 18.3186 27.8042 18.1666 27.8959 18.0122L27.91 17.9884C27.9461 17.9281 27.9819 17.8682 28.0224 17.808C28.1877 17.5682 28.3397 17.381 28.4986 17.2228C29.2868 16.4342 30.3347 16 31.45 16C32.5646 16 33.612 16.4337 34.4002 17.2212C36.0259 18.8478 36.0245 21.4951 34.3984 23.1209C34.2374 23.2824 34.0456 23.4384 33.8109 23.5972C33.747 23.6424 33.692 23.6747 33.635 23.7084L33.6043 23.7265C33.4512 23.8174 33.3003 23.897 33.1584 23.9623C33.0743 24.001 32.9955 24.0368 32.9154 24.0662C32.759 24.1246 32.593 24.1737 32.4057 24.2169C32.3662 24.2265 32.3306 24.237 32.2953 24.2466C32.2739 24.2524 32.2521 24.2593 32.2298 24.2649L31.3052 24.3294C31.1885 24.3236 31.0631 24.3082 30.9318 24.2912L30.875 24.284C30.8323 24.279 30.793 24.2769 30.7548 24.2745C30.7392 24.2737 30.7238 24.2736 30.7084 24.271L30.6774 24.2673L30.6366 24.2642C30.5676 24.2615 30.499 24.2601 30.4297 24.2601C28.8328 24.2601 27.2554 24.9405 26.1027 26.1265C24.9532 27.3096 24.3201 28.9025 24.3655 30.4958L24.3667 30.5425L24.375 30.5882C24.3848 30.6348 24.3867 30.6831 24.3899 30.7306C24.393 30.7794 24.397 30.8274 24.4021 30.8765C24.406 30.9153 24.4119 30.9648 24.4177 31.0142C24.4254 31.0839 24.4344 31.1523 24.4358 31.2216L24.3692 32.1306C24.3641 32.154 24.3564 32.1779 24.3492 32.2022L24.3259 32.2837C24.2795 32.4874 24.2305 32.6567 24.1748 32.8073C24.145 32.8858 24.1068 32.9673 24.0689 33.0511C24.0002 33.2007 23.9227 33.349 23.8324 33.4999C23.7891 33.5721 23.749 33.64 23.7056 33.7042C23.5344 33.9522 23.3873 34.1344 23.2263 34.2941C22.4388 35.0811 21.3927 35.514 20.2801 35.514Z" fill="white"/>
</svg>
