<svg width="24" height="24" viewBox="0 0 24 24" fill="none" xmlns="http://www.w3.org/2000/svg">
<path d="M3.94189 21.1642C3.94189 17.5554 7.53202 14.6367 11.9521 14.6367M21.2771 21.1642L20.3446 20.2317M11.9521 11.8392C13.1886 11.8392 14.3746 11.3479 15.249 10.4735C16.1233 9.59916 16.6146 8.41323 16.6146 7.17666C16.6146 5.94009 16.1233 4.75416 15.249 3.87977C14.3746 3.00539 13.1886 2.51416 11.9521 2.51416C10.7155 2.51416 9.52957 3.00539 8.65518 3.87977C7.7808 4.75416 7.28957 5.94009 7.28957 7.17666C7.28957 8.41323 7.7808 9.59916 8.65518 10.4735C9.52957 11.3479 10.7155 11.8392 11.9521 11.8392V11.8392ZM17.7336 20.6047C18.525 20.6047 19.284 20.2903 19.8436 19.7307C20.4032 19.1711 20.7176 18.4121 20.7176 17.6207C20.7176 16.8293 20.4032 16.0703 19.8436 15.5107C19.284 14.951 18.525 14.6367 17.7336 14.6367C16.9422 14.6367 16.1832 14.951 15.6236 15.5107C15.064 16.0703 14.7496 16.8293 14.7496 17.6207C14.7496 18.4121 15.064 19.1711 15.6236 19.7307C16.1832 20.2903 16.9422 20.6047 17.7336 20.6047Z" stroke="#64748B" stroke-width="1.39875" stroke-linecap="round" stroke-linejoin="round"/>
</svg>
