<svg width="20" height="20" viewBox="0 0 20 20" fill="none" xmlns="http://www.w3.org/2000/svg">
<path d="M3.28564 18.2568C3.28564 15.1564 6.37004 12.6488 10.1674 12.6488M18.1789 18.2568L17.3777 17.4556M10.1674 10.2454C11.2298 10.2454 12.2487 9.82333 12.9999 9.07211C13.7511 8.3209 14.1732 7.30203 14.1732 6.23965C14.1732 5.17727 13.7511 4.15841 12.9999 3.40719C12.2487 2.65598 11.2298 2.23395 10.1674 2.23395C9.10507 2.23395 8.0862 2.65598 7.33498 3.40719C6.58377 4.15841 6.16174 5.17727 6.16174 6.23965C6.16174 7.30203 6.58377 8.3209 7.33498 9.07211C8.0862 9.82333 9.10507 10.2454 10.1674 10.2454V10.2454ZM15.1345 17.7761C15.8144 17.7761 16.4665 17.506 16.9473 17.0252C17.4281 16.5444 17.6982 15.8924 17.6982 15.2124C17.6982 14.5325 17.4281 13.8804 16.9473 13.3997C16.4665 12.9189 15.8144 12.6488 15.1345 12.6488C14.4546 12.6488 13.8025 12.9189 13.3217 13.3997C12.841 13.8804 12.5709 14.5325 12.5709 15.2124C12.5709 15.8924 12.841 16.5444 13.3217 17.0252C13.8025 17.506 14.4546 17.7761 15.1345 17.7761Z" stroke="#64748B" stroke-width="1.20171" stroke-linecap="round" stroke-linejoin="round"/>
</svg>
