<svg width="20" height="20" viewBox="0 0 20 20" fill="none" xmlns="http://www.w3.org/2000/svg">
<path d="M17.5719 13.2502V6.84109C17.5716 6.56011 17.4974 6.28415 17.3568 6.04088C17.2162 5.79762 17.0141 5.59561 16.7708 5.45512L11.1628 2.25055C10.9192 2.10992 10.6429 2.03589 10.3616 2.03589C10.0804 2.03589 9.80407 2.10992 9.56049 2.25055L3.95251 5.45512C3.70917 5.59561 3.50706 5.79762 3.36644 6.04088C3.22583 6.28415 3.15166 6.56011 3.15137 6.84109V13.2502C3.15166 13.5312 3.22583 13.8072 3.36644 14.0504C3.50706 14.2937 3.70917 14.4957 3.95251 14.6362L9.56049 17.8408C9.80407 17.9814 10.0804 18.0554 10.3616 18.0554C10.6429 18.0554 10.9192 17.9814 11.1628 17.8408L16.7708 14.6362C17.0141 14.4957 17.2162 14.2937 17.3568 14.0504C17.4974 13.8072 17.5716 13.5312 17.5719 13.2502Z" stroke="#404B51" stroke-width="1.60228" stroke-linecap="round" stroke-linejoin="round"/>
<path d="M3.36768 6.00781L10.3616 10.0536L17.3556 6.00781" stroke="#404B51" stroke-width="1.60228" stroke-linecap="round" stroke-linejoin="round"/>
<path d="M10.3618 18.121V10.0455" stroke="#404B51" stroke-width="1.60228" stroke-linecap="round" stroke-linejoin="round"/>
</svg>
