<svg width="1441" height="893" viewBox="0 0 1441 893" fill="none" xmlns="http://www.w3.org/2000/svg">
<mask id="mask0_232_100" style="mask-type:alpha" maskUnits="userSpaceOnUse" x="0" y="0" width="1441" height="893">
<path d="M1441 0H0V893H1441V0Z" fill="url(#paint0_radial_232_100)"/>
</mask>
<g mask="url(#mask0_232_100)">
<path d="M1440 29.4185H0V30.3411H1440V29.4185Z" fill="#C8D0D9" fill-opacity="0.5"/>
<path d="M1440 59.8638H0V60.7864H1440V59.8638Z" fill="#C8D0D9" fill-opacity="0.5"/>
<path d="M1440 90.311H0V91.2337H1440V90.311Z" fill="#C8D0D9" fill-opacity="0.5"/>
<path d="M1440 120.758H0V121.681H1440V120.758Z" fill="#C8D0D9" fill-opacity="0.5"/>
<path d="M1440 151.206H0V152.128H1440V151.206Z" fill="#C8D0D9" fill-opacity="0.5"/>
<path d="M1440 181.651H0V182.574H1440V181.651Z" fill="#C8D0D9" fill-opacity="0.5"/>
<path d="M1440 212.098H0V213.021H1440V212.098Z" fill="#C8D0D9" fill-opacity="0.5"/>
<path d="M1440 242.545H0V243.468H1440V242.545Z" fill="#C8D0D9" fill-opacity="0.5"/>
<path d="M1440 272.993H0V273.915H1440V272.993Z" fill="#C8D0D9" fill-opacity="0.5"/>
<path d="M1440 303.438H0V304.361H1440V303.438Z" fill="#C8D0D9" fill-opacity="0.5"/>
<path d="M1440 333.886H0V334.808H1440V333.886Z" fill="#C8D0D9" fill-opacity="0.5"/>
<path d="M1440 364.333H0V365.256H1440V364.333Z" fill="#C8D0D9" fill-opacity="0.5"/>
<path d="M1440 394.78H0V395.702H1440V394.78Z" fill="#C8D0D9" fill-opacity="0.5"/>
<path d="M1440 425.226H0V426.148H1440V425.226Z" fill="#C8D0D9" fill-opacity="0.5"/>
<path d="M95 -1.02881H94V426.149H95V-1.02881Z" fill="#C8D0D9" fill-opacity="0.5"/>
<path d="M200 -1.02881H199V426.149H200V-1.02881Z" fill="#C8D0D9" fill-opacity="0.5"/>
<path d="M305 -1.02881H304V426.149H305V-1.02881Z" fill="#C8D0D9" fill-opacity="0.5"/>
<path d="M409 -1.02881H408V426.149H409V-1.02881Z" fill="#C8D0D9" fill-opacity="0.5"/>
<path d="M513 -1.02881H512V426.149H513V-1.02881Z" fill="#C8D0D9" fill-opacity="0.5"/>
<path d="M617 -1.02881H616V426.149H617V-1.02881Z" fill="#C8D0D9" fill-opacity="0.5"/>
<path d="M721 -1.02881H720V426.149H721V-1.02881Z" fill="#C8D0D9" fill-opacity="0.5"/>
<path d="M825 -1.02881H824V426.149H825V-1.02881Z" fill="#C8D0D9" fill-opacity="0.5"/>
<path d="M929 -1.02881H928V426.149H929V-1.02881Z" fill="#C8D0D9" fill-opacity="0.5"/>
<path d="M1033 -1.02881H1032V426.149H1033V-1.02881Z" fill="#C8D0D9" fill-opacity="0.5"/>
<path d="M1137 -1.02881H1136V426.149H1137V-1.02881Z" fill="#C8D0D9" fill-opacity="0.5"/>
<path d="M1241 -1.02881H1240V426.149H1241V-1.02881Z" fill="#C8D0D9" fill-opacity="0.5"/>
<path d="M1345 -1.02881H1344V426.149H1345V-1.02881Z" fill="#C8D0D9" fill-opacity="0.5"/>
<path d="M1440 456.596H0V457.519H1440V456.596Z" fill="#C8D0D9" fill-opacity="0.5"/>
<path d="M1440 487.042H0V487.964H1440V487.042Z" fill="#C8D0D9" fill-opacity="0.5"/>
<path d="M1440 517.489H0V518.411H1440V517.489Z" fill="#C8D0D9" fill-opacity="0.5"/>
<path d="M1440 547.936H0V548.859H1440V547.936Z" fill="#C8D0D9" fill-opacity="0.5"/>
<path d="M1440 578.383H0V579.306H1440V578.383Z" fill="#C8D0D9" fill-opacity="0.5"/>
<path d="M1440 608.829H0V609.751H1440V608.829Z" fill="#C8D0D9" fill-opacity="0.5"/>
<path d="M1440 639.276H0V640.199H1440V639.276Z" fill="#C8D0D9" fill-opacity="0.5"/>
<path d="M1440 669.723H0V670.646H1440V669.723Z" fill="#C8D0D9" fill-opacity="0.5"/>
<path d="M1440 700.17H0V701.093H1440V700.17Z" fill="#C8D0D9" fill-opacity="0.5"/>
<path d="M1440 730.616H0V731.538H1440V730.616Z" fill="#C8D0D9" fill-opacity="0.5"/>
<path d="M1440 761.063H0V761.986H1440V761.063Z" fill="#C8D0D9" fill-opacity="0.5"/>
<path d="M1440 791.51H0V792.433H1440V791.51Z" fill="#C8D0D9" fill-opacity="0.5"/>
<path d="M95 426.149H94V851.481H95V426.149Z" fill="#C8D0D9" fill-opacity="0.5"/>
<path d="M200 426.149H199V851.481H200V426.149Z" fill="#C8D0D9" fill-opacity="0.5"/>
<path d="M305 426.149H304V851.481H305V426.149Z" fill="#C8D0D9" fill-opacity="0.5"/>
<path d="M409 426.149H408V851.481H409V426.149Z" fill="#C8D0D9" fill-opacity="0.5"/>
<path d="M513 426.149H512V851.481H513V426.149Z" fill="#C8D0D9" fill-opacity="0.5"/>
<path d="M617 426.149H616V851.481H617V426.149Z" fill="#C8D0D9" fill-opacity="0.5"/>
<path d="M721 426.149H720V851.481H721V426.149Z" fill="#C8D0D9" fill-opacity="0.5"/>
<path d="M825 426.149H824V851.481H825V426.149Z" fill="#C8D0D9" fill-opacity="0.5"/>
<path d="M929 426.149H928V851.481H929V426.149Z" fill="#C8D0D9" fill-opacity="0.5"/>
<path d="M1033 426.149H1032V851.481H1033V426.149Z" fill="#C8D0D9" fill-opacity="0.5"/>
<path d="M1137 426.149H1136V851.481H1137V426.149Z" fill="#C8D0D9" fill-opacity="0.5"/>
<path d="M1241 426.149H1240V851.481H1241V426.149Z" fill="#C8D0D9" fill-opacity="0.5"/>
<path d="M1345 426.149H1344V851.481H1345V426.149Z" fill="#C8D0D9" fill-opacity="0.5"/>
</g>
<defs>
<radialGradient id="paint0_radial_232_100" cx="0" cy="0" r="1" gradientUnits="userSpaceOnUse" gradientTransform="translate(720.5 446.5) rotate(90) scale(446.5 705.158)">
<stop offset="0.590909" stop-color="#C4C4C4" stop-opacity="0.7"/>
<stop offset="1" stop-color="#C4C4C4" stop-opacity="0"/>
</radialGradient>
</defs>
</svg>
