<svg width="17" height="17" viewBox="0 0 17 17" fill="none" xmlns="http://www.w3.org/2000/svg">
<g clip-path="url(#clip0_233_1412)">
<path d="M8.99504 10.0486C10.1012 10.0486 10.9979 9.15184 10.9979 8.0457C10.9979 6.93955 10.1012 6.04285 8.99504 6.04285C7.8889 6.04285 6.99219 6.93955 6.99219 8.0457C6.99219 9.15184 7.8889 10.0486 8.99504 10.0486Z" stroke="#475569" stroke-width="1.33523" stroke-linecap="round" stroke-linejoin="round"/>
<path d="M13.9346 10.0487C13.8457 10.25 13.8192 10.4734 13.8584 10.69C13.8977 10.9065 14.001 11.1064 14.1549 11.2637L14.1949 11.3038C14.3191 11.4278 14.4176 11.5751 14.4848 11.7372C14.5519 11.8993 14.5865 12.073 14.5865 12.2485C14.5865 12.4239 14.5519 12.5977 14.4848 12.7598C14.4176 12.9219 14.3191 13.0691 14.1949 13.1932C14.0709 13.3173 13.9237 13.4158 13.7616 13.483C13.5995 13.5502 13.4257 13.5848 13.2502 13.5848C13.0748 13.5848 12.901 13.5502 12.7389 13.483C12.5768 13.4158 12.4296 13.3173 12.3056 13.1932L12.2655 13.1531C12.1082 12.9992 11.9083 12.8959 11.6918 12.8567C11.4752 12.8174 11.2518 12.8439 11.0504 12.9328C10.853 13.0174 10.6846 13.1579 10.566 13.337C10.4473 13.5162 10.3837 13.7261 10.3828 13.9409V14.0544C10.3828 14.4085 10.2422 14.7481 9.99175 14.9985C9.74134 15.2489 9.40172 15.3896 9.04759 15.3896C8.69347 15.3896 8.35384 15.2489 8.10344 14.9985C7.85303 14.7481 7.71236 14.4085 7.71236 14.0544V13.9943C7.70719 13.7733 7.63566 13.559 7.50707 13.3792C7.37848 13.1994 7.19878 13.0625 6.99133 12.9862C6.78997 12.8973 6.5666 12.8708 6.35003 12.9101C6.13345 12.9493 5.93361 13.0526 5.77627 13.2065L5.73621 13.2466C5.6122 13.3707 5.46494 13.4692 5.30285 13.5364C5.14075 13.6036 4.967 13.6382 4.79153 13.6382C4.61606 13.6382 4.44231 13.6036 4.28022 13.5364C4.11812 13.4692 3.97086 13.3707 3.84685 13.2466C3.72271 13.1226 3.62422 12.9753 3.55703 12.8132C3.48983 12.6511 3.45525 12.4774 3.45525 12.3019C3.45525 12.1264 3.48983 11.9527 3.55703 11.7906C3.62422 11.6285 3.72271 11.4812 3.84685 11.3572L3.88691 11.3171C4.04082 11.1598 4.14407 10.96 4.18333 10.7434C4.2226 10.5268 4.19609 10.3034 4.10722 10.1021C4.02259 9.90462 3.88207 9.73622 3.70296 9.6176C3.52384 9.49898 3.31395 9.43532 3.09912 9.43446H2.98563C2.6315 9.43446 2.29188 9.29379 2.04147 9.04338C1.79107 8.79298 1.65039 8.45336 1.65039 8.09923C1.65039 7.7451 1.79107 7.40548 2.04147 7.15508C2.29188 6.90467 2.6315 6.76399 2.98563 6.76399H3.04571C3.26669 6.75882 3.481 6.6873 3.66079 6.55871C3.84057 6.43012 3.97752 6.25042 4.05381 6.04297C4.14268 5.8416 4.16919 5.61823 4.12993 5.40166C4.09066 5.18509 3.98741 4.98525 3.8335 4.8279L3.79344 4.78785C3.6693 4.66384 3.57081 4.51658 3.50362 4.35448C3.43642 4.19239 3.40184 4.01864 3.40184 3.84317C3.40184 3.6677 3.43642 3.49395 3.50362 3.33185C3.57081 3.16976 3.6693 3.0225 3.79344 2.89849C3.91745 2.77434 4.06471 2.67586 4.22681 2.60866C4.3889 2.54147 4.56265 2.50688 4.73812 2.50688C4.91359 2.50688 5.08734 2.54147 5.24944 2.60866C5.41153 2.67586 5.55879 2.77434 5.6828 2.89849L5.72286 2.93855C5.8802 3.09246 6.08004 3.1957 6.29662 3.23497C6.51319 3.27424 6.73656 3.24773 6.93792 3.15886H6.99133C7.18879 3.07423 7.3572 2.93371 7.47582 2.75459C7.59444 2.57548 7.65809 2.36559 7.65895 2.15076V2.03726C7.65895 1.68314 7.79963 1.34351 8.05003 1.09311C8.30044 0.842703 8.64006 0.702026 8.99418 0.702026C9.34831 0.702026 9.68793 0.842703 9.93834 1.09311C10.1887 1.34351 10.3294 1.68314 10.3294 2.03726V2.09735C10.3303 2.31218 10.3939 2.52207 10.5126 2.70118C10.6312 2.8803 10.7996 3.02082 10.997 3.10545C11.1984 3.19432 11.4218 3.22083 11.6383 3.18156C11.8549 3.14229 12.0548 3.03905 12.2121 2.88514L12.2522 2.84508C12.3762 2.72093 12.5234 2.62245 12.6855 2.55525C12.8476 2.48806 13.0214 2.45347 13.1968 2.45347C13.3723 2.45347 13.5461 2.48806 13.7082 2.55525C13.8702 2.62245 14.0175 2.72093 14.1415 2.84508C14.2657 2.96909 14.3641 3.11635 14.4313 3.27844C14.4985 3.44054 14.5331 3.61429 14.5331 3.78976C14.5331 3.96523 14.4985 4.13898 14.4313 4.30107C14.3641 4.46317 14.2657 4.61043 14.1415 4.73444L14.1015 4.77449C13.9475 4.93184 13.8443 5.13168 13.805 5.34825C13.7658 5.56482 13.7923 5.78819 13.8811 5.98956V6.04297C13.9658 6.24043 14.1063 6.40883 14.2854 6.52745C14.4645 6.64607 14.6744 6.70973 14.8892 6.71058H15.0027C15.3569 6.71058 15.6965 6.85126 15.9469 7.10167C16.1973 7.35207 16.338 7.69169 16.338 8.04582C16.338 8.39995 16.1973 8.73957 15.9469 8.98997C15.6965 9.24038 15.3569 9.38105 15.0027 9.38105H14.9427C14.7278 9.38191 14.5179 9.44557 14.3388 9.56419C14.1597 9.68281 14.0192 9.85121 13.9346 10.0487Z" stroke="#475569" stroke-width="1.33523" stroke-linecap="round" stroke-linejoin="round"/>
</g>
<defs>
<clipPath id="clip0_233_1412">
<rect width="16.0228" height="16.0228" fill="white" transform="translate(0.983398 0.0341797)"/>
</clipPath>
</defs>
</svg>
