<svg width="16" height="15" viewBox="0 0 16 15" fill="none" xmlns="http://www.w3.org/2000/svg">
<g clip-path="url(#clip0_232_245)">
<path d="M8.268 10.3566C9.94774 10.3566 11.3094 8.99485 11.3094 7.31512C11.3094 5.63538 9.94774 4.27368 8.268 4.27368C6.58826 4.27368 5.22656 5.63538 5.22656 7.31512C5.22656 8.99485 6.58826 10.3566 8.268 10.3566Z" stroke="#64748B" stroke-width="1.21657" stroke-linecap="round" stroke-linejoin="round"/>
<path d="M8.2666 0.624023V1.8406" stroke="#64748B" stroke-width="1.21657" stroke-linecap="round" stroke-linejoin="round"/>
<path d="M8.2666 12.791V14.0076" stroke="#64748B" stroke-width="1.21657" stroke-linecap="round" stroke-linejoin="round"/>
<path d="M3.53711 2.58301L4.40088 3.44678" stroke="#64748B" stroke-width="1.21657" stroke-linecap="round" stroke-linejoin="round"/>
<path d="M12.1362 11.1841L13 12.0478" stroke="#64748B" stroke-width="1.21657" stroke-linecap="round" stroke-linejoin="round"/>
<path d="M1.57715 7.31543H2.79372" stroke="#64748B" stroke-width="1.21657" stroke-linecap="round" stroke-linejoin="round"/>
<path d="M13.7422 7.31543H14.9588" stroke="#64748B" stroke-width="1.21657" stroke-linecap="round" stroke-linejoin="round"/>
<path d="M3.53711 12.0478L4.40088 11.1841" stroke="#64748B" stroke-width="1.21657" stroke-linecap="round" stroke-linejoin="round"/>
<path d="M12.1362 3.44678L13 2.58301" stroke="#64748B" stroke-width="1.21657" stroke-linecap="round" stroke-linejoin="round"/>
</g>
<defs>
<clipPath id="clip0_232_245">
<rect width="14.5989" height="14.5989" fill="white" transform="translate(0.967773 0.0158691)"/>
</clipPath>
</defs>
</svg>
