<svg width="13" height="12" viewBox="0 0 13 12" fill="none" xmlns="http://www.w3.org/2000/svg">
<g clip-path="url(#clip0_232_1029)">
<path d="M12 0.5H3C2.73478 0.5 2.48043 0.605357 2.29289 0.792893C2.10536 0.98043 2 1.23478 2 1.5V2.5H1C0.734784 2.5 0.48043 2.60536 0.292893 2.79289C0.105357 2.98043 0 3.23478 0 3.5L0 10.5C0 10.7652 0.105357 11.0196 0.292893 11.2071C0.48043 11.3946 0.734784 11.5 1 11.5H10C10.2652 11.5 10.5196 11.3946 10.7071 11.2071C10.8946 11.0196 11 10.7652 11 10.5V9.5H12C12.2652 9.5 12.5196 9.39464 12.7071 9.20711C12.8946 9.01957 13 8.76522 13 8.5V1.5C13 1.23478 12.8946 0.98043 12.7071 0.792893C12.5196 0.605357 12.2652 0.5 12 0.5ZM10 3.5V4.5H1V3.5H10ZM12 8.5H11V3.5C11 3.23478 10.8946 2.98043 10.7071 2.79289C10.5196 2.60536 10.2652 2.5 10 2.5H3V1.5H12V8.5Z" fill="#64748B"/>
</g>
<defs>
<clipPath id="clip0_232_1029">
<rect width="13" height="12" fill="white"/>
</clipPath>
</defs>
</svg>
