<svg width="17" height="16" viewBox="0 0 17 16" fill="none" xmlns="http://www.w3.org/2000/svg">
<path d="M4.5613 2.73212C4.38632 2.56907 4.15487 2.4803 3.91573 2.48452C3.67659 2.48874 3.44843 2.58561 3.2793 2.75474C3.11018 2.92386 3.0133 3.15203 3.00909 3.39117C3.00487 3.63031 3.09363 3.86175 3.25668 4.03673L7.83515 8.6152L3.25668 13.1937C3.16599 13.2782 3.09325 13.3801 3.0428 13.4933C2.99235 13.6065 2.96522 13.7288 2.96303 13.8527C2.96085 13.9766 2.98365 14.0998 3.03007 14.2147C3.0765 14.3296 3.1456 14.4341 3.23325 14.5217C3.32091 14.6094 3.42532 14.6785 3.54026 14.7249C3.6552 14.7713 3.77831 14.7941 3.90225 14.7919C4.02619 14.7897 4.14843 14.7626 4.26166 14.7122C4.37489 14.6617 4.47679 14.589 4.5613 14.4983L9.13976 9.91981L13.7182 14.4983C13.8027 14.589 13.9046 14.6617 14.0179 14.7122C14.1311 14.7626 14.2533 14.7897 14.3773 14.7919C14.5012 14.7941 14.6243 14.7713 14.7393 14.7249C14.8542 14.6785 14.9586 14.6094 15.0463 14.5217C15.1339 14.4341 15.203 14.3296 15.2495 14.2147C15.2959 14.0998 15.3187 13.9766 15.3165 13.8527C15.3143 13.7288 15.2872 13.6065 15.2367 13.4933C15.1863 13.3801 15.1135 13.2782 15.0228 13.1937L10.4444 8.6152L15.0228 4.03673C15.1859 3.86175 15.2747 3.63031 15.2704 3.39117C15.2662 3.15203 15.1693 2.92386 15.0002 2.75474C14.8311 2.58561 14.6029 2.48874 14.3638 2.48452C14.1247 2.4803 13.8932 2.56907 13.7182 2.73212L9.13976 7.31058L4.5613 2.73212Z" fill="#EB7075"/>
</svg>
