<svg width="21" height="20" viewBox="0 0 21 20" fill="none" xmlns="http://www.w3.org/2000/svg">
<path d="M15.4205 17.9703C14.7155 18.1786 13.8823 18.2747 12.9049 18.2747H8.0981C7.12071 18.2747 6.28752 18.1786 5.58252 17.9703C5.75877 15.8873 7.89782 14.2449 10.5015 14.2449C13.1052 14.2449 15.2443 15.8873 15.4205 17.9703Z" stroke="#A4B1C0" stroke-width="1.20171" stroke-linecap="round" stroke-linejoin="round"/>
<path d="M12.9051 2.25189H8.09822C4.09252 2.25189 2.49023 3.85417 2.49023 7.85988V12.6667C2.49023 15.695 3.40354 17.3534 5.58264 17.9703C5.75889 15.8873 7.89794 14.2449 10.5016 14.2449C13.1054 14.2449 15.2444 15.8873 15.4206 17.9703C17.5998 17.3534 18.5131 15.695 18.5131 12.6667V7.85988C18.5131 3.85417 16.9108 2.25189 12.9051 2.25189ZM10.5016 12.0018C8.91538 12.0018 7.63356 10.712 7.63356 9.1257C7.63356 7.53944 8.91538 6.2576 10.5016 6.2576C12.0879 6.2576 13.3697 7.53944 13.3697 9.1257C13.3697 10.712 12.0879 12.0018 10.5016 12.0018Z" stroke="#A4B1C0" stroke-width="1.20171" stroke-linecap="round" stroke-linejoin="round"/>
<path d="M13.37 9.12567C13.37 10.7119 12.0881 12.0017 10.5019 12.0017C8.91562 12.0017 7.63379 10.7119 7.63379 9.12567C7.63379 7.53941 8.91562 6.25757 10.5019 6.25757C12.0881 6.25757 13.37 7.53941 13.37 9.12567Z" stroke="#A4B1C0" stroke-width="1.20171" stroke-linecap="round" stroke-linejoin="round"/>
</svg>
